<?xml version="1.0" encoding="UTF-8" standalone="no"?>
<!DOCTYPE svg PUBLIC "-//W3C//DTD SVG 1.1//EN"
 "http://www.w3.org/Graphics/SVG/1.1/DTD/svg11.dtd">
<!-- Generated by graphviz version 14.1.5 (20260411.2331)
 -->
<!-- Title: packages_worthless Pages: 1 -->
<svg width="3186pt" height="836pt"
 viewBox="0.00 0.00 3186.00 836.00" xmlns="http://www.w3.org/2000/svg" xmlns:xlink="http://www.w3.org/1999/xlink">
<g id="graph0" class="graph" transform="scale(1 1) rotate(0) translate(4 832)">
<title>packages_worthless</title>
<polygon fill="white" stroke="none" points="-4,4 -4,-832 3182.06,-832 3182.06,4 -4,4"/>
<!-- worthless -->
<g id="node1" class="node">
<title>worthless</title>
<polygon fill="none" stroke="black" points="2299.94,-36 2232.19,-36 2232.19,0 2299.94,0 2299.94,-36"/>
<text xml:space="preserve" text-anchor="start" x="2240.19" y="-13.5" font-family="Times,serif" font-size="14.00">worthless</text>
</g>
<!-- worthless.adapters -->
<g id="node2" class="node">
<title>worthless.adapters</title>
<polygon fill="none" stroke="black" points="267.31,-468 150.81,-468 150.81,-432 267.31,-432 267.31,-468"/>
<text xml:space="preserve" text-anchor="start" x="158.81" y="-445.5" font-family="Times,serif" font-size="14.00">worthless.adapters</text>
</g>
<!-- worthless.adapters.anthropic -->
<g id="node3" class="node">
<title>worthless.adapters.anthropic</title>
<polygon fill="none" stroke="black" points="310.69,-612 139.44,-612 139.44,-576 310.69,-576 310.69,-612"/>
<text xml:space="preserve" text-anchor="start" x="147.44" y="-589.5" font-family="Times,serif" font-size="14.00">worthless.adapters.anthropic</text>
</g>
<!-- worthless.adapters&#45;&gt;worthless.adapters.anthropic -->
<g id="edge1" class="edge">
<title>worthless.adapters&#45;&gt;worthless.adapters.anthropic</title>
<path fill="none" stroke="black" d="M208.25,-468.49C207.69,-486.51 207.58,-515.36 211.06,-540 212.22,-548.2 214.21,-556.95 216.33,-564.92"/>
<polygon fill="black" stroke="black" points="219.01,-574.37 211.95,-565.98 217.98,-570.74 216.28,-564.75 216.28,-564.75 216.28,-564.75 217.98,-570.74 220.61,-563.53 219.01,-574.37"/>
</g>
<!-- worthless.adapters.openai -->
<g id="node4" class="node">
<title>worthless.adapters.openai</title>
<polygon fill="none" stroke="black" points="485.19,-612 328.94,-612 328.94,-576 485.19,-576 485.19,-612"/>
<text xml:space="preserve" text-anchor="start" x="336.94" y="-589.5" font-family="Times,serif" font-size="14.00">worthless.adapters.openai</text>
</g>
<!-- worthless.adapters&#45;&gt;worthless.adapters.openai -->
<g id="edge2" class="edge">
<title>worthless.adapters&#45;&gt;worthless.adapters.openai</title>
<path fill="none" stroke="black" d="M211.36,-468.19C214.92,-488.14 223.63,-520.77 244.06,-540 256.28,-551.5 289.38,-563.16 322.58,-572.6"/>
<polygon fill="black" stroke="black" points="332.16,-575.26 321.32,-576.92 328.52,-574.25 322.53,-572.58 322.53,-572.58 322.53,-572.58 328.52,-574.25 323.73,-568.25 332.16,-575.26"/>
</g>
<!-- worthless.adapters.registry -->
<g id="node5" class="node">
<title>worthless.adapters.registry</title>
<polygon fill="none" stroke="black" points="414.81,-540 253.31,-540 253.31,-504 414.81,-504 414.81,-540"/>
<text xml:space="preserve" text-anchor="start" x="261.31" y="-517.5" font-family="Times,serif" font-size="14.00">worthless.adapters.registry</text>
</g>
<!-- worthless.adapters&#45;&gt;worthless.adapters.registry -->
<g id="edge3" class="edge">
<title>worthless.adapters&#45;&gt;worthless.adapters.registry</title>
<path fill="none" stroke="black" d="M240.28,-468.48C256.51,-477.57 276.53,-488.78 293.9,-498.51"/>
<polygon fill="black" stroke="black" points="302.18,-503.14 291.25,-502.18 298.88,-501.3 293.45,-498.26 293.45,-498.26 293.45,-498.26 298.88,-501.3 295.65,-494.33 302.18,-503.14"/>
</g>
<!-- worthless.adapters.types -->
<g id="node6" class="node">
<title>worthless.adapters.types</title>
<polygon fill="none" stroke="black" points="481.44,-684 332.69,-684 332.69,-648 481.44,-648 481.44,-684"/>
<text xml:space="preserve" text-anchor="start" x="340.69" y="-661.5" font-family="Times,serif" font-size="14.00">worthless.adapters.types</text>
</g>
<!-- worthless.adapters&#45;&gt;worthless.adapters.types -->
<g id="edge4" class="edge">
<title>worthless.adapters&#45;&gt;worthless.adapters.types</title>
<path fill="none" stroke="black" d="M188.5,-468.49C154.14,-499.81 92.37,-566.41 130.06,-612 154.06,-641.03 249.26,-654.31 321.42,-660.28"/>
<polygon fill="black" stroke="black" points="331.12,-661.05 320.79,-664.75 327.35,-660.75 321.15,-660.26 321.15,-660.26 321.15,-660.26 327.35,-660.75 321.5,-655.78 331.12,-661.05"/>
</g>
<!-- worthless.adapters.anthropic&#45;&gt;worthless.adapters.types -->
<g id="edge5" class="edge">
<title>worthless.adapters.anthropic&#45;&gt;worthless.adapters.types</title>
<path fill="none" stroke="black" d="M270.52,-612.48C295.04,-621.92 325.51,-633.63 351.44,-643.61"/>
<polygon fill="black" stroke="black" points="360.73,-647.18 349.78,-647.79 357.2,-645.82 351.4,-643.59 351.4,-643.59 351.4,-643.59 357.2,-645.82 353.02,-639.39 360.73,-647.18"/>
</g>
<!-- worthless.adapters.openai&#45;&gt;worthless.adapters.types -->
<g id="edge6" class="edge">
<title>worthless.adapters.openai&#45;&gt;worthless.adapters.types</title>
<path fill="none" stroke="black" d="M407.06,-612.3C407.06,-619.68 407.06,-628.48 407.06,-636.75"/>
<polygon fill="black" stroke="black" points="407.06,-646.68 402.56,-636.68 407.06,-642.9 407.06,-636.68 407.06,-636.68 407.06,-636.68 407.06,-642.9 411.56,-636.68 407.06,-646.68"/>
</g>
<!-- worthless.adapters.registry&#45;&gt;worthless.adapters.anthropic -->
<g id="edge7" class="edge">
<title>worthless.adapters.registry&#45;&gt;worthless.adapters.anthropic</title>
<path fill="none" stroke="black" d="M306.84,-540.48C293.08,-549.32 276.2,-560.16 261.35,-569.7"/>
<polygon fill="black" stroke="black" points="252.97,-575.08 258.95,-565.89 256.15,-573.04 261.38,-569.68 261.38,-569.68 261.38,-569.68 256.15,-573.04 263.81,-573.46 252.97,-575.08"/>
</g>
<!-- worthless.adapters.registry&#45;&gt;worthless.adapters.openai -->
<g id="edge8" class="edge">
<title>worthless.adapters.registry&#45;&gt;worthless.adapters.openai</title>
<path fill="none" stroke="black" d="M352.11,-540.3C360.79,-548.63 371.37,-558.78 380.92,-567.93"/>
<polygon fill="black" stroke="black" points="388.09,-574.81 377.76,-571.14 385.36,-572.19 380.88,-567.89 380.88,-567.89 380.88,-567.89 385.36,-572.19 383.99,-564.64 388.09,-574.81"/>
</g>
<!-- worthless.adapters.registry&#45;&gt;worthless.adapters.types -->
<g id="edge9" class="edge">
<title>worthless.adapters.registry&#45;&gt;worthless.adapters.types</title>
<path fill="none" stroke="black" d="M414.61,-540.4C449.17,-549.65 483.96,-562 494.06,-576 503.43,-588.97 501.9,-598.05 494.06,-612 487.02,-624.53 475.68,-634.45 463.48,-642.15"/>
<polygon fill="black" stroke="black" points="455.1,-647 461.5,-638.1 458.37,-645.11 463.75,-641.99 463.75,-641.99 463.75,-641.99 458.37,-645.11 466.01,-645.89 455.1,-647"/>
</g>
<!-- worthless.cli -->
<g id="node7" class="node">
<title>worthless.cli</title>
<polygon fill="none" stroke="black" points="2402.56,-36 2317.56,-36 2317.56,0 2402.56,0 2402.56,-36"/>
<text xml:space="preserve" text-anchor="start" x="2325.56" y="-13.5" font-family="Times,serif" font-size="14.00">worthless.cli</text>
</g>
<!-- worthless.cli.app -->
<g id="node8" class="node">
<title>worthless.cli.app</title>
<polygon fill="none" stroke="black" points="2414.19,-108 2305.94,-108 2305.94,-72 2414.19,-72 2414.19,-108"/>
<text xml:space="preserve" text-anchor="start" x="2313.94" y="-85.5" font-family="Times,serif" font-size="14.00">worthless.cli.app</text>
</g>
<!-- worthless.cli&#45;&gt;worthless.cli.app -->
<g id="edge10" class="edge">
<title>worthless.cli&#45;&gt;worthless.cli.app</title>
<path fill="none" stroke="black" d="M2360.06,-36.3C2360.06,-43.68 2360.06,-52.48 2360.06,-60.75"/>
<polygon fill="black" stroke="black" points="2360.06,-70.68 2355.56,-60.68 2360.06,-66.9 2360.06,-60.68 2360.06,-60.68 2360.06,-60.68 2360.06,-66.9 2364.56,-60.68 2360.06,-70.68"/>
</g>
<!-- worthless.cli.commands.down -->
<g id="node11" class="node">
<title>worthless.cli.commands.down</title>
<polygon fill="none" stroke="black" points="3036.31,-468 2853.81,-468 2853.81,-432 3036.31,-432 3036.31,-468"/>
<text xml:space="preserve" text-anchor="start" x="2861.81" y="-445.5" font-family="Times,serif" font-size="14.00">worthless.cli.commands.down</text>
</g>
<!-- worthless.cli.app&#45;&gt;worthless.cli.commands.down -->
<g id="edge11" class="edge">
<title>worthless.cli.app&#45;&gt;worthless.cli.commands.down</title>
<path fill="none" stroke="black" d="M2414.55,-91.75C2537.83,-94.16 2834.47,-104.04 2925.06,-144 2978.9,-167.74 3023.06,-174.16 3023.06,-233 3023.06,-233 3023.06,-233 3023.06,-307 3023.06,-352.23 2992.28,-396.67 2969.39,-423.47"/>
<polygon fill="black" stroke="black" points="2962.79,-430.94 2966.04,-420.46 2965.3,-428.1 2969.41,-423.44 2969.41,-423.44 2969.41,-423.44 2965.3,-428.1 2972.79,-426.42 2962.79,-430.94"/>
</g>
<!-- worthless.cli.commands.lock -->
<g id="node12" class="node">
<title>worthless.cli.commands.lock</title>
<polygon fill="none" stroke="black" points="1586.94,-324 1411.19,-324 1411.19,-288 1586.94,-288 1586.94,-324"/>
<text xml:space="preserve" text-anchor="start" x="1419.19" y="-301.5" font-family="Times,serif" font-size="14.00">worthless.cli.commands.lock</text>
</g>
<!-- worthless.cli.app&#45;&gt;worthless.cli.commands.lock -->
<g id="edge12" class="edge">
<title>worthless.cli.app&#45;&gt;worthless.cli.commands.lock</title>
<path fill="none" stroke="black" d="M2305.58,-92.81C2179.1,-97.52 1868.89,-112.03 1770.06,-144 1674.68,-174.85 1577.03,-243.99 1529.21,-280.83"/>
<polygon fill="black" stroke="black" points="1521.56,-286.78 1526.69,-277.09 1524.54,-284.46 1529.45,-280.64 1529.45,-280.64 1529.45,-280.64 1524.54,-284.46 1532.21,-284.19 1521.56,-286.78"/>
</g>
<!-- worthless.cli.commands.mcp -->
<g id="node13" class="node">
<title>worthless.cli.commands.mcp</title>
<polygon fill="none" stroke="black" points="1247.31,-180 1070.81,-180 1070.81,-144 1247.31,-144 1247.31,-180"/>
<text xml:space="preserve" text-anchor="start" x="1078.81" y="-157.5" font-family="Times,serif" font-size="14.00">worthless.cli.commands.mcp</text>
</g>
<!-- worthless.cli.app&#45;&gt;worthless.cli.commands.mcp -->
<g id="edge13" class="edge">
<title>worthless.cli.app&#45;&gt;worthless.cli.commands.mcp</title>
<path fill="none" stroke="black" d="M2305.73,-94.17C2119.02,-105.05 1501.79,-141.02 1258.7,-155.19"/>
<polygon fill="black" stroke="black" points="1248.98,-155.76 1258.7,-150.69 1252.75,-155.54 1258.96,-155.18 1258.96,-155.18 1258.96,-155.18 1252.75,-155.54 1259.22,-159.67 1248.98,-155.76"/>
</g>
<!-- worthless.cli.commands.revoke -->
<g id="node14" class="node">
<title>worthless.cli.commands.revoke</title>
<polygon fill="none" stroke="black" points="1755.69,-468 1566.44,-468 1566.44,-432 1755.69,-432 1755.69,-468"/>
<text xml:space="preserve" text-anchor="start" x="1574.44" y="-445.5" font-family="Times,serif" font-size="14.00">worthless.cli.commands.revoke</text>
</g>
<!-- worthless.cli.app&#45;&gt;worthless.cli.commands.revoke -->
<g id="edge14" class="edge">
<title>worthless.cli.app&#45;&gt;worthless.cli.commands.revoke</title>
<path fill="none" stroke="black" d="M2305.62,-92.86C2162.03,-99.25 1784.06,-126.21 1784.06,-233 1784.06,-233 1784.06,-233 1784.06,-307 1784.06,-358.8 1736.73,-400.97 1700.79,-425.54"/>
<polygon fill="black" stroke="black" points="1692.48,-431.02 1698.35,-421.75 1695.64,-428.94 1700.83,-425.51 1700.83,-425.51 1700.83,-425.51 1695.64,-428.94 1703.31,-429.26 1692.48,-431.02"/>
</g>
<!-- worthless.cli.commands.scan -->
<g id="node15" class="node">
<title>worthless.cli.commands.scan</title>
<polygon fill="none" stroke="black" points="721.31,-324 544.81,-324 544.81,-288 721.31,-288 721.31,-324"/>
<text xml:space="preserve" text-anchor="start" x="552.81" y="-301.5" font-family="Times,serif" font-size="14.00">worthless.cli.commands.scan</text>
</g>
<!-- worthless.cli.app&#45;&gt;worthless.cli.commands.scan -->
<g id="edge15" class="edge">
<title>worthless.cli.app&#45;&gt;worthless.cli.commands.scan</title>
<path fill="none" stroke="black" d="M2305.8,-90.93C2091.73,-90.99 1305.63,-94.65 1062.06,-144 916,-173.6 753.98,-246.09 677.57,-282.85"/>
<polygon fill="black" stroke="black" points="668.9,-287.05 675.94,-278.64 672.3,-285.4 677.9,-282.69 677.9,-282.69 677.9,-282.69 672.3,-285.4 679.86,-286.74 668.9,-287.05"/>
</g>
<!-- worthless.cli.commands.status -->
<g id="node16" class="node">
<title>worthless.cli.commands.status</title>
<polygon fill="none" stroke="black" points="2835.69,-468 2652.44,-468 2652.44,-432 2835.69,-432 2835.69,-468"/>
<text xml:space="preserve" text-anchor="start" x="2660.44" y="-445.5" font-family="Times,serif" font-size="14.00">worthless.cli.commands.status</text>
</g>
<!-- worthless.cli.app&#45;&gt;worthless.cli.commands.status -->
<g id="edge16" class="edge">
<title>worthless.cli.app&#45;&gt;worthless.cli.commands.status</title>
<path fill="none" stroke="black" d="M2414.43,-91.82C2566.49,-95.56 2985.06,-116.44 2985.06,-233 2985.06,-233 2985.06,-233 2985.06,-307 2985.06,-375.45 2912,-411.58 2846.33,-430.22"/>
<polygon fill="black" stroke="black" points="2837.04,-432.74 2845.51,-425.78 2840.69,-431.75 2846.69,-430.12 2846.69,-430.12 2846.69,-430.12 2840.69,-431.75 2847.87,-434.46 2837.04,-432.74"/>
</g>
<!-- worthless.cli.commands.unlock -->
<g id="node17" class="node">
<title>worthless.cli.commands.unlock</title>
<polygon fill="none" stroke="black" points="2277.69,-324 2088.44,-324 2088.44,-288 2277.69,-288 2277.69,-324"/>
<text xml:space="preserve" text-anchor="start" x="2096.44" y="-301.5" font-family="Times,serif" font-size="14.00">worthless.cli.commands.unlock</text>
</g>
<!-- worthless.cli.app&#45;&gt;worthless.cli.commands.unlock -->
<g id="edge17" class="edge">
<title>worthless.cli.app&#45;&gt;worthless.cli.commands.unlock</title>
<path fill="none" stroke="black" d="M2345.88,-108.15C2314.87,-145.64 2240.92,-235.05 2204.32,-279.3"/>
<polygon fill="black" stroke="black" points="2198.09,-286.83 2201,-276.25 2200.5,-283.91 2204.47,-279.12 2204.47,-279.12 2204.47,-279.12 2200.5,-283.91 2207.93,-281.99 2198.09,-286.83"/>
</g>
<!-- worthless.cli.commands.up -->
<g id="node18" class="node">
<title>worthless.cli.commands.up</title>
<polygon fill="none" stroke="black" points="2406.06,-468 2240.06,-468 2240.06,-432 2406.06,-432 2406.06,-468"/>
<text xml:space="preserve" text-anchor="start" x="2248.06" y="-445.5" font-family="Times,serif" font-size="14.00">worthless.cli.commands.up</text>
</g>
<!-- worthless.cli.app&#45;&gt;worthless.cli.commands.up -->
<g id="edge18" class="edge">
<title>worthless.cli.app&#45;&gt;worthless.cli.commands.up</title>
<path fill="none" stroke="black" d="M2359.86,-108.33C2359.09,-155.09 2355.31,-287.6 2337.06,-396 2335.69,-404.16 2333.63,-412.9 2331.51,-420.88"/>
<polygon fill="black" stroke="black" points="2328.87,-430.34 2327.23,-419.49 2329.89,-426.69 2331.56,-420.7 2331.56,-420.7 2331.56,-420.7 2329.89,-426.69 2335.9,-421.91 2328.87,-430.34"/>
</g>
<!-- worthless.cli.commands.wrap -->
<g id="node19" class="node">
<title>worthless.cli.commands.wrap</title>
<polygon fill="none" stroke="black" points="2599.81,-396 2420.31,-396 2420.31,-360 2599.81,-360 2599.81,-396"/>
<text xml:space="preserve" text-anchor="start" x="2428.31" y="-373.5" font-family="Times,serif" font-size="14.00">worthless.cli.commands.wrap</text>
</g>
<!-- worthless.cli.app&#45;&gt;worthless.cli.commands.wrap -->
<g id="edge19" class="edge">
<title>worthless.cli.app&#45;&gt;worthless.cli.commands.wrap</title>
<path fill="none" stroke="black" d="M2393.28,-108.42C2407.58,-117.37 2423.42,-129.47 2434.06,-144 2480.79,-207.78 2499.73,-301.73 2506.6,-348.45"/>
<polygon fill="black" stroke="black" points="2507.96,-358.32 2502.13,-349.03 2507.44,-354.57 2506.59,-348.41 2506.59,-348.41 2506.59,-348.41 2507.44,-354.57 2511.05,-347.8 2507.96,-358.32"/>
</g>
<!-- worthless.cli.console -->
<g id="node20" class="node">
<title>worthless.cli.console</title>
<polygon fill="none" stroke="black" points="2881.06,-828 2751.06,-828 2751.06,-792 2881.06,-792 2881.06,-828"/>
<text xml:space="preserve" text-anchor="start" x="2759.06" y="-805.5" font-family="Times,serif" font-size="14.00">worthless.cli.console</text>
</g>
<!-- worthless.cli.app&#45;&gt;worthless.cli.console -->
<g id="edge20" class="edge">
<title>worthless.cli.app&#45;&gt;worthless.cli.console</title>
<path fill="none" stroke="black" d="M2414.56,-91.16C2557.99,-92.19 2943.04,-99.19 3061.06,-144 3122.14,-167.19 3178.06,-167.67 3178.06,-233 3178.06,-233 3178.06,-233 3178.06,-667 3178.06,-726.17 3131.93,-729.44 3079.06,-756 3020.46,-785.44 2946.76,-798.53 2892.3,-804.35"/>
<polygon fill="black" stroke="black" points="2882.55,-805.33 2892.05,-799.85 2886.31,-804.95 2892.5,-804.33 2892.5,-804.33 2892.5,-804.33 2886.31,-804.95 2892.95,-808.81 2882.55,-805.33"/>
</g>
<!-- worthless.cli.default_command -->
<g id="node21" class="node">
<title>worthless.cli.default_command</title>
<polygon fill="none" stroke="black" points="2153.94,-252 1966.19,-252 1966.19,-216 2153.94,-216 2153.94,-252"/>
<text xml:space="preserve" text-anchor="start" x="1974.19" y="-229.5" font-family="Times,serif" font-size="14.00">worthless.cli.default_command</text>
</g>
<!-- worthless.cli.app&#45;&gt;worthless.cli.default_command -->
<g id="edge21" class="edge">
<title>worthless.cli.app&#45;&gt;worthless.cli.default_command</title>
<path fill="none" stroke="black" d="M2313.13,-108.46C2287.68,-118.27 2255.84,-131.11 2228.06,-144 2183.37,-164.74 2133.68,-191.55 2100.02,-210.3"/>
<polygon fill="black" stroke="black" points="2091.6,-215.01 2098.13,-206.2 2094.9,-213.17 2100.33,-210.13 2100.33,-210.13 2100.33,-210.13 2094.9,-213.17 2102.52,-214.06 2091.6,-215.01"/>
</g>
<!-- worthless.cli.errors -->
<g id="node24" class="node">
<title>worthless.cli.errors</title>
<polygon fill="none" stroke="black" points="2409.19,-756 2288.94,-756 2288.94,-720 2409.19,-720 2409.19,-756"/>
<text xml:space="preserve" text-anchor="start" x="2296.94" y="-733.5" font-family="Times,serif" font-size="14.00">worthless.cli.errors</text>
</g>
<!-- worthless.cli.app&#45;&gt;worthless.cli.errors -->
<g id="edge22" class="edge">
<title>worthless.cli.app&#45;&gt;worthless.cli.errors</title>
<path fill="none" stroke="black" d="M2414.53,-92.81C2545.03,-97.6 2872.45,-112.47 2977.06,-144 3056.09,-167.82 3140.06,-150.46 3140.06,-233 3140.06,-233 3140.06,-233 3140.06,-379 3140.06,-693.4 2614.98,-733.13 2420.44,-737.06"/>
<polygon fill="black" stroke="black" points="2410.71,-737.23 2420.63,-732.56 2414.49,-737.17 2420.71,-737.06 2420.71,-737.06 2420.71,-737.06 2414.49,-737.17 2420.79,-741.56 2410.71,-737.23"/>
</g>
<!-- worthless.cli.bootstrap -->
<g id="node9" class="node">
<title>worthless.cli.bootstrap</title>
<polygon fill="none" stroke="black" points="2373.56,-612 2234.56,-612 2234.56,-576 2373.56,-576 2373.56,-612"/>
<text xml:space="preserve" text-anchor="start" x="2242.56" y="-589.5" font-family="Times,serif" font-size="14.00">worthless.cli.bootstrap</text>
</g>
<!-- worthless.cli.bootstrap&#45;&gt;worthless.cli.errors -->
<g id="edge23" class="edge">
<title>worthless.cli.bootstrap&#45;&gt;worthless.cli.errors</title>
<path fill="none" stroke="black" d="M2340.96,-612.31C2354.93,-620.92 2369.31,-632.79 2377.06,-648 2387.18,-667.85 2378.35,-692.06 2368,-710.21"/>
<polygon fill="black" stroke="black" points="2362.85,-718.57 2364.27,-707.7 2364.83,-715.35 2368.1,-710.06 2368.1,-710.06 2368.1,-710.06 2364.83,-715.35 2371.93,-712.42 2362.85,-718.57"/>
</g>
<!-- worthless.cli.keystore -->
<g id="node26" class="node">
<title>worthless.cli.keystore</title>
<polygon fill="none" stroke="black" points="2368.31,-684 2233.81,-684 2233.81,-648 2368.31,-648 2368.31,-684"/>
<text xml:space="preserve" text-anchor="start" x="2241.81" y="-661.5" font-family="Times,serif" font-size="14.00">worthless.cli.keystore</text>
</g>
<!-- worthless.cli.bootstrap&#45;&gt;worthless.cli.keystore -->
<g id="edge24" class="edge">
<title>worthless.cli.bootstrap&#45;&gt;worthless.cli.keystore</title>
<path fill="none" stroke="black" d="M2303.32,-612.3C2303.01,-619.68 2302.63,-628.48 2302.27,-636.75"/>
<polygon fill="black" stroke="black" points="2301.85,-646.68 2297.78,-636.49 2302.01,-642.9 2302.28,-636.69 2302.28,-636.69 2302.28,-636.69 2302.01,-642.9 2306.77,-636.88 2301.85,-646.68"/>
</g>
<!-- worthless.cli.platform -->
<g id="node27" class="node">
<title>worthless.cli.platform</title>
<polygon fill="none" stroke="black" points="2560.06,-684 2424.06,-684 2424.06,-648 2560.06,-648 2560.06,-684"/>
<text xml:space="preserve" text-anchor="start" x="2432.06" y="-661.5" font-family="Times,serif" font-size="14.00">worthless.cli.platform</text>
</g>
<!-- worthless.cli.bootstrap&#45;&gt;worthless.cli.platform -->
<g id="edge25" class="edge">
<title>worthless.cli.bootstrap&#45;&gt;worthless.cli.platform</title>
<path fill="none" stroke="black" d="M2351.02,-612.48C2376.46,-621.96 2408.1,-633.74 2434.96,-643.74"/>
<polygon fill="black" stroke="black" points="2444.24,-647.19 2433.3,-647.92 2440.7,-645.87 2434.87,-643.7 2434.87,-643.7 2434.87,-643.7 2440.7,-645.87 2436.44,-639.49 2444.24,-647.19"/>
</g>
<!-- worthless.storage.schema -->
<g id="node46" class="node">
<title>worthless.storage.schema</title>
<polygon fill="none" stroke="black" points="1355.81,-684 1200.31,-684 1200.31,-648 1355.81,-648 1355.81,-684"/>
<text xml:space="preserve" text-anchor="start" x="1208.31" y="-661.5" font-family="Times,serif" font-size="14.00">worthless.storage.schema</text>
</g>
<!-- worthless.cli.bootstrap&#45;&gt;worthless.storage.schema -->
<g id="edge26" class="edge">
<title>worthless.cli.bootstrap&#45;&gt;worthless.storage.schema</title>
<path fill="none" stroke="black" d="M2234.27,-606.14C2218.76,-608.34 2202.38,-610.44 2187.06,-612 1887.27,-642.46 1529.95,-656.95 1366.99,-662.36"/>
<polygon fill="black" stroke="black" points="1357.28,-662.67 1367.13,-657.85 1361.06,-662.55 1367.28,-662.35 1367.28,-662.35 1367.28,-662.35 1361.06,-662.55 1367.42,-666.84 1357.28,-662.67"/>
</g>
<!-- worthless.cli.commands -->
<g id="node10" class="node">
<title>worthless.cli.commands</title>
<polygon fill="none" stroke="black" points="2569.44,-36 2420.69,-36 2420.69,0 2569.44,0 2569.44,-36"/>
<text xml:space="preserve" text-anchor="start" x="2428.69" y="-13.5" font-family="Times,serif" font-size="14.00">worthless.cli.commands</text>
</g>
<!-- worthless.cli.commands.down&#45;&gt;worthless.cli.bootstrap -->
<g id="edge27" class="edge">
<title>worthless.cli.commands.down&#45;&gt;worthless.cli.bootstrap</title>
<path fill="none" stroke="black" d="M2884.99,-468.46C2817.69,-487.63 2705.17,-518.54 2607.06,-540 2532.13,-556.39 2445.91,-571.07 2384.64,-580.8"/>
<polygon fill="black" stroke="black" points="2375.09,-582.31 2384.27,-576.31 2378.83,-581.72 2384.97,-580.75 2384.97,-580.75 2384.97,-580.75 2378.83,-581.72 2385.67,-585.2 2375.09,-582.31"/>
</g>
<!-- worthless.cli.commands.down&#45;&gt;worthless.cli.console -->
<g id="edge28" class="edge">
<title>worthless.cli.commands.down&#45;&gt;worthless.cli.console</title>
<path fill="none" stroke="black" d="M2949.72,-468.34C2956.44,-494.95 2968.06,-547.55 2968.06,-593 2968.06,-593 2968.06,-593 2968.06,-667 2968.06,-723.24 2911.82,-763.6 2867.76,-786.59"/>
<polygon fill="black" stroke="black" points="2859.09,-790.96 2865.99,-782.44 2862.47,-789.26 2868.02,-786.46 2868.02,-786.46 2868.02,-786.46 2862.47,-789.26 2870.04,-790.48 2859.09,-790.96"/>
</g>
<!-- worthless.cli.commands.down&#45;&gt;worthless.cli.errors -->
<g id="edge29" class="edge">
<title>worthless.cli.commands.down&#45;&gt;worthless.cli.errors</title>
<path fill="none" stroke="black" d="M2935.99,-468.19C2911.52,-512.65 2839.37,-631.59 2742.06,-684 2688,-713.12 2518.48,-727.39 2420.64,-733.37"/>
<polygon fill="black" stroke="black" points="2410.87,-733.95 2420.59,-728.86 2414.65,-733.72 2420.86,-733.35 2420.86,-733.35 2420.86,-733.35 2414.65,-733.72 2421.12,-737.85 2410.87,-733.95"/>
</g>
<!-- worthless.cli.commands.down&#45;&gt;worthless.cli.platform -->
<g id="edge30" class="edge">
<title>worthless.cli.commands.down&#45;&gt;worthless.cli.platform</title>
<path fill="none" stroke="black" d="M2915.46,-468.44C2861.76,-499.67 2744.18,-566.15 2640.06,-612 2613.39,-623.75 2583.22,-634.91 2557.11,-643.94"/>
<polygon fill="black" stroke="black" points="2547.72,-647.16 2555.72,-639.66 2551.29,-645.93 2557.18,-643.92 2557.18,-643.92 2557.18,-643.92 2551.29,-645.93 2558.63,-648.18 2547.72,-647.16"/>
</g>
<!-- worthless.cli.process -->
<g id="node28" class="node">
<title>worthless.cli.process</title>
<polygon fill="none" stroke="black" points="2597.69,-540 2468.44,-540 2468.44,-504 2597.69,-504 2597.69,-540"/>
<text xml:space="preserve" text-anchor="start" x="2476.44" y="-517.5" font-family="Times,serif" font-size="14.00">worthless.cli.process</text>
</g>
<!-- worthless.cli.commands.down&#45;&gt;worthless.cli.process -->
<g id="edge31" class="edge">
<title>worthless.cli.commands.down&#45;&gt;worthless.cli.process</title>
<path fill="none" stroke="black" d="M2853.51,-466.56C2850.66,-467.05 2847.84,-467.53 2845.06,-468 2764.46,-481.7 2672.13,-497.38 2608.95,-508.11"/>
<polygon fill="black" stroke="black" points="2599.1,-509.78 2608.21,-503.67 2602.83,-509.15 2608.96,-508.11 2608.96,-508.11 2608.96,-508.11 2602.83,-509.15 2609.71,-512.55 2599.1,-509.78"/>
</g>
<!-- worthless.cli.commands.lock&#45;&gt;worthless.cli.bootstrap -->
<g id="edge32" class="edge">
<title>worthless.cli.commands.lock&#45;&gt;worthless.cli.bootstrap</title>
<path fill="none" stroke="black" d="M1552.32,-324.44C1613.67,-344.04 1717.78,-375.74 1809.06,-396 1908.79,-418.14 1947.81,-380.55 2036.06,-432 2089.07,-462.9 2071.11,-505.82 2122.06,-540 2152.15,-560.18 2190.02,-572.81 2223.41,-580.64"/>
<polygon fill="black" stroke="black" points="2232.89,-582.76 2222.15,-584.97 2229.2,-581.93 2223.13,-580.58 2223.13,-580.58 2223.13,-580.58 2229.2,-581.93 2224.11,-576.19 2232.89,-582.76"/>
</g>
<!-- worthless.cli.commands.lock&#45;&gt;worthless.cli.commands.up -->
<g id="edge33" class="edge">
<title>worthless.cli.commands.lock&#45;&gt;worthless.cli.commands.up</title>
<path fill="none" stroke="black" d="M1587.25,-322.2C1743.7,-349.16 2068.46,-405.12 2229.01,-432.79"/>
<polygon fill="black" stroke="black" points="2238.62,-434.45 2228,-437.18 2234.89,-433.81 2228.76,-432.75 2228.76,-432.75 2228.76,-432.75 2234.89,-433.81 2229.53,-428.31 2238.62,-434.45"/>
</g>
<!-- worthless.cli.commands.lock&#45;&gt;worthless.cli.commands.wrap -->
<g id="edge34" class="edge">
<title>worthless.cli.commands.lock&#45;&gt;worthless.cli.commands.wrap</title>
<path fill="none" stroke="black" d="M1587.01,-313.09C1774.2,-326.05 2211.05,-356.3 2409.17,-370.01"/>
<polygon fill="black" stroke="black" points="2418.93,-370.69 2408.64,-374.49 2415.16,-370.43 2408.95,-370 2408.95,-370 2408.95,-370 2415.16,-370.43 2409.27,-365.51 2418.93,-370.69"/>
</g>
<!-- worthless.cli.commands.lock&#45;&gt;worthless.cli.console -->
<g id="edge35" class="edge">
<title>worthless.cli.commands.lock&#45;&gt;worthless.cli.console</title>
<path fill="none" stroke="black" d="M1411.09,-309.73C1126.4,-319.29 242.77,-354.95 142.06,-432 80.23,-479.3 73.06,-515.15 73.06,-593 73.06,-593 73.06,-593 73.06,-667 73.06,-804.36 2295.88,-809.49 2739.56,-809.14"/>
<polygon fill="black" stroke="black" points="2749.41,-809.13 2739.41,-813.64 2745.63,-809.14 2739.41,-809.14 2739.41,-809.14 2739.41,-809.14 2745.63,-809.14 2739.41,-804.64 2749.41,-809.13"/>
</g>
<!-- worthless.cli.dotenv_rewriter -->
<g id="node22" class="node">
<title>worthless.cli.dotenv_rewriter</title>
<polygon fill="none" stroke="black" points="842.56,-468 667.56,-468 667.56,-432 842.56,-432 842.56,-468"/>
<text xml:space="preserve" text-anchor="start" x="675.56" y="-445.5" font-family="Times,serif" font-size="14.00">worthless.cli.dotenv_rewriter</text>
</g>
<!-- worthless.cli.commands.lock&#45;&gt;worthless.cli.dotenv_rewriter -->
<g id="edge36" class="edge">
<title>worthless.cli.commands.lock&#45;&gt;worthless.cli.dotenv_rewriter</title>
<path fill="none" stroke="black" d="M1410.85,-308.61C1263.83,-312.28 975.51,-323.96 881.06,-360 856.15,-369.51 854.76,-380.5 833.06,-396 819.21,-405.9 803.74,-416.5 790.25,-425.6"/>
<polygon fill="black" stroke="black" points="782.28,-430.95 788.07,-421.64 785.42,-428.84 790.58,-425.38 790.58,-425.38 790.58,-425.38 785.42,-428.84 793.09,-429.11 782.28,-430.95"/>
</g>
<!-- worthless.cli.commands.lock&#45;&gt;worthless.cli.errors -->
<g id="edge37" class="edge">
<title>worthless.cli.commands.lock&#45;&gt;worthless.cli.errors</title>
<path fill="none" stroke="black" d="M1410.91,-320.14C1298.09,-338.98 1112.36,-377.5 1072.06,-432 1062.55,-444.86 1063.44,-454.52 1072.06,-468 1092.64,-500.16 1126.02,-474.34 1150.06,-504 1201.73,-567.74 1128.11,-631.38 1191.06,-684 1232.83,-718.92 2031.61,-732.68 2277.59,-736.1"/>
<polygon fill="black" stroke="black" points="2287.32,-736.23 2277.25,-740.59 2283.53,-736.18 2277.32,-736.09 2277.32,-736.09 2277.32,-736.09 2283.53,-736.18 2277.38,-731.59 2287.32,-736.23"/>
</g>
<!-- worthless.cli.key_patterns -->
<g id="node25" class="node">
<title>worthless.cli.key_patterns</title>
<polygon fill="none" stroke="black" points="704.94,-540 547.19,-540 547.19,-504 704.94,-504 704.94,-540"/>
<text xml:space="preserve" text-anchor="start" x="555.19" y="-517.5" font-family="Times,serif" font-size="14.00">worthless.cli.key_patterns</text>
</g>
<!-- worthless.cli.commands.lock&#45;&gt;worthless.cli.key_patterns -->
<g id="edge38" class="edge">
<title>worthless.cli.commands.lock&#45;&gt;worthless.cli.key_patterns</title>
<path fill="none" stroke="black" d="M1410.81,-308.06C1277.32,-310.92 1031.34,-321.43 953.06,-360 923.59,-374.52 880.5,-451.54 852.06,-468 839.87,-475.05 773.6,-490.21 715.95,-502.51"/>
<polygon fill="black" stroke="black" points="706.49,-504.52 715.34,-498.04 710.19,-503.74 716.27,-502.45 716.27,-502.45 716.27,-502.45 710.19,-503.74 717.21,-506.85 706.49,-504.52"/>
</g>
<!-- worthless.crypto.splitter -->
<g id="node32" class="node">
<title>worthless.crypto.splitter</title>
<polygon fill="none" stroke="black" points="1876.69,-540 1729.44,-540 1729.44,-504 1876.69,-504 1876.69,-540"/>
<text xml:space="preserve" text-anchor="start" x="1737.44" y="-517.5" font-family="Times,serif" font-size="14.00">worthless.crypto.splitter</text>
</g>
<!-- worthless.cli.commands.lock&#45;&gt;worthless.crypto.splitter -->
<g id="edge39" class="edge">
<title>worthless.cli.commands.lock&#45;&gt;worthless.crypto.splitter</title>
<path fill="none" stroke="black" d="M1526,-324.45C1556.62,-343.75 1608.52,-374.92 1656.06,-396 1702.7,-416.68 1727.5,-397.48 1765.06,-432 1782.54,-448.06 1792.3,-473.5 1797.54,-493.07"/>
<polygon fill="black" stroke="black" points="1799.84,-502.62 1793.12,-493.95 1798.95,-498.94 1797.5,-492.9 1797.5,-492.9 1797.5,-492.9 1798.95,-498.94 1801.87,-491.85 1799.84,-502.62"/>
</g>
<!-- worthless.storage.repository -->
<g id="node45" class="node">
<title>worthless.storage.repository</title>
<polygon fill="none" stroke="black" points="1562.56,-540 1393.56,-540 1393.56,-504 1562.56,-504 1562.56,-540"/>
<text xml:space="preserve" text-anchor="start" x="1401.56" y="-517.5" font-family="Times,serif" font-size="14.00">worthless.storage.repository</text>
</g>
<!-- worthless.cli.commands.lock&#45;&gt;worthless.storage.repository -->
<g id="edge40" class="edge">
<title>worthless.cli.commands.lock&#45;&gt;worthless.storage.repository</title>
<path fill="none" stroke="black" d="M1434.76,-324.42C1383.07,-342.19 1313.87,-375.37 1281.06,-432 1273.04,-445.84 1271.33,-455.3 1281.06,-468 1287.92,-476.95 1336.72,-490.11 1384.03,-501.08"/>
<polygon fill="black" stroke="black" points="1393.53,-503.26 1382.78,-505.41 1389.85,-502.41 1383.78,-501.03 1383.78,-501.03 1383.78,-501.03 1389.85,-502.41 1384.79,-496.64 1393.53,-503.26"/>
</g>
<!-- worthless.cli.commands.mcp&#45;&gt;worthless.cli.errors -->
<g id="edge41" class="edge">
<title>worthless.cli.commands.mcp&#45;&gt;worthless.cli.errors</title>
<path fill="none" stroke="black" d="M1070.55,-162.22C878.98,-162.93 443.06,-178.43 443.06,-305 443.06,-305 443.06,-305 443.06,-451 443.06,-495.32 461.02,-504.88 488.06,-540 568.65,-644.67 618.81,-656.75 748.06,-684 898.77,-715.77 1987.5,-732.24 2277.98,-736.1"/>
<polygon fill="black" stroke="black" points="2287.57,-736.23 2277.51,-740.6 2283.79,-736.18 2277.57,-736.1 2277.57,-736.1 2277.57,-736.1 2283.79,-736.18 2277.63,-731.6 2287.57,-736.23"/>
</g>
<!-- worthless.mcp.server -->
<g id="node37" class="node">
<title>worthless.mcp.server</title>
<polygon fill="none" stroke="black" points="1225.19,-252 1092.94,-252 1092.94,-216 1225.19,-216 1225.19,-252"/>
<text xml:space="preserve" text-anchor="start" x="1100.94" y="-229.5" font-family="Times,serif" font-size="14.00">worthless.mcp.server</text>
</g>
<!-- worthless.cli.commands.mcp&#45;&gt;worthless.mcp.server -->
<g id="edge42" class="edge">
<title>worthless.cli.commands.mcp&#45;&gt;worthless.mcp.server</title>
<path fill="none" stroke="black" d="M1159.06,-180.3C1159.06,-187.68 1159.06,-196.48 1159.06,-204.75"/>
<polygon fill="black" stroke="black" points="1159.06,-214.68 1154.56,-204.68 1159.06,-210.9 1159.06,-204.68 1159.06,-204.68 1159.06,-204.68 1159.06,-210.9 1163.56,-204.68 1159.06,-214.68"/>
</g>
<!-- worthless.cli.commands.revoke&#45;&gt;worthless.cli.bootstrap -->
<g id="edge43" class="edge">
<title>worthless.cli.commands.revoke&#45;&gt;worthless.cli.bootstrap</title>
<path fill="none" stroke="black" d="M1739.95,-468.45C1783.23,-478.31 1837.77,-491.2 1886.06,-504 1940.71,-518.49 1953.05,-527 2008.06,-540 2080.29,-557.07 2163.57,-571.52 2223.36,-581"/>
<polygon fill="black" stroke="black" points="2233.04,-582.53 2222.46,-585.42 2229.3,-581.94 2223.16,-580.97 2223.16,-580.97 2223.16,-580.97 2229.3,-581.94 2223.86,-576.53 2233.04,-582.53"/>
</g>
<!-- worthless.cli.commands.revoke&#45;&gt;worthless.cli.console -->
<g id="edge44" class="edge">
<title>worthless.cli.commands.revoke&#45;&gt;worthless.cli.console</title>
<path fill="none" stroke="black" d="M1651.59,-468.09C1646.51,-478.2 1640.76,-491.45 1638.06,-504 1621.21,-582.45 1592.8,-629.91 1652.06,-684 1732.5,-757.41 2494.16,-795.52 2739.98,-805.98"/>
<polygon fill="black" stroke="black" points="2749.73,-806.39 2739.55,-810.46 2745.95,-806.23 2739.73,-805.97 2739.73,-805.97 2739.73,-805.97 2745.95,-806.23 2739.92,-801.47 2749.73,-806.39"/>
</g>
<!-- worthless.cli.commands.revoke&#45;&gt;worthless.cli.errors -->
<g id="edge45" class="edge">
<title>worthless.cli.commands.revoke&#45;&gt;worthless.cli.errors</title>
<path fill="none" stroke="black" d="M1655.84,-468.37C1643.99,-511.69 1620.45,-625.28 1679.06,-684 1720.69,-725.7 2113.72,-734.59 2277.72,-736.49"/>
<polygon fill="black" stroke="black" points="2287.44,-736.59 2277.39,-740.98 2283.66,-736.55 2277.44,-736.48 2277.44,-736.48 2277.44,-736.48 2283.66,-736.55 2277.49,-731.98 2287.44,-736.59"/>
</g>
<!-- worthless.cli.commands.revoke&#45;&gt;worthless.storage.repository -->
<g id="edge46" class="edge">
<title>worthless.cli.commands.revoke&#45;&gt;worthless.storage.repository</title>
<path fill="none" stroke="black" d="M1615.36,-468.48C1590.59,-477.96 1559.79,-489.74 1533.65,-499.74"/>
<polygon fill="black" stroke="black" points="1524.64,-503.18 1532.37,-495.41 1528.17,-501.83 1533.98,-499.61 1533.98,-499.61 1533.98,-499.61 1528.17,-501.83 1535.59,-503.81 1524.64,-503.18"/>
</g>
<!-- worthless.cli.commands.scan&#45;&gt;worthless.cli.bootstrap -->
<g id="edge47" class="edge">
<title>worthless.cli.commands.scan&#45;&gt;worthless.cli.bootstrap</title>
<path fill="none" stroke="black" d="M721.66,-314.61C1022.77,-340.53 1988.94,-424.22 2003.06,-432 2029.58,-446.6 2060.7,-523.49 2086.06,-540 2108.73,-554.75 2170.96,-569.1 2223.15,-579.13"/>
<polygon fill="black" stroke="black" points="2232.92,-580.98 2222.26,-583.54 2229.21,-580.28 2223.1,-579.12 2223.1,-579.12 2223.1,-579.12 2229.21,-580.28 2223.93,-574.7 2232.92,-580.98"/>
</g>
<!-- worthless.cli.commands.scan&#45;&gt;worthless.cli.console -->
<g id="edge48" class="edge">
<title>worthless.cli.commands.scan&#45;&gt;worthless.cli.console</title>
<path fill="none" stroke="black" d="M544.5,-309.75C378.04,-317.35 35.06,-345.56 35.06,-449 35.06,-449 35.06,-449 35.06,-667 35.06,-703.38 -116.03,-679.74 215.06,-756 466.2,-813.85 2336.98,-810.67 2739.79,-809.31"/>
<polygon fill="black" stroke="black" points="2749.5,-809.27 2739.52,-813.81 2745.72,-809.29 2739.5,-809.31 2739.5,-809.31 2739.5,-809.31 2745.72,-809.29 2739.48,-804.81 2749.5,-809.27"/>
</g>
<!-- worthless.cli.commands.scan&#45;&gt;worthless.cli.dotenv_rewriter -->
<g id="edge49" class="edge">
<title>worthless.cli.commands.scan&#45;&gt;worthless.cli.dotenv_rewriter</title>
<path fill="none" stroke="black" d="M632.54,-324.19C632.83,-343.55 636.03,-375.04 652.06,-396 661.94,-408.91 675.85,-418.96 690.26,-426.65"/>
<polygon fill="black" stroke="black" points="699.19,-431.07 688.23,-430.67 695.8,-429.4 690.22,-426.64 690.22,-426.64 690.22,-426.64 695.8,-429.4 692.22,-422.6 699.19,-431.07"/>
</g>
<!-- worthless.cli.commands.scan&#45;&gt;worthless.cli.errors -->
<g id="edge50" class="edge">
<title>worthless.cli.commands.scan&#45;&gt;worthless.cli.errors</title>
<path fill="none" stroke="black" d="M615.04,-324.35C574.7,-365.28 484.71,-469.72 538.06,-540 547.06,-551.85 781.58,-608.56 796.06,-612 957.79,-650.37 998.02,-664.23 1163.06,-684 1583.25,-734.32 2092.36,-738.02 2277.44,-737.51"/>
<polygon fill="black" stroke="black" points="2287.42,-737.47 2277.43,-742.01 2283.64,-737.49 2277.42,-737.51 2277.42,-737.51 2277.42,-737.51 2283.64,-737.49 2277.4,-733.01 2287.42,-737.47"/>
</g>
<!-- worthless.cli.commands.scan&#45;&gt;worthless.cli.key_patterns -->
<g id="edge51" class="edge">
<title>worthless.cli.commands.scan&#45;&gt;worthless.cli.key_patterns</title>
<path fill="none" stroke="black" d="M632.5,-324.15C631.3,-360.93 628.46,-447.71 626.99,-492.76"/>
<polygon fill="black" stroke="black" points="626.67,-502.55 622.5,-492.41 626.79,-498.77 626.99,-492.56 626.99,-492.56 626.99,-492.56 626.79,-498.77 631.49,-492.7 626.67,-502.55"/>
</g>
<!-- worthless.cli.scanner -->
<g id="node29" class="node">
<title>worthless.cli.scanner</title>
<polygon fill="none" stroke="black" points="791.06,-396 661.06,-396 661.06,-360 791.06,-360 791.06,-396"/>
<text xml:space="preserve" text-anchor="start" x="669.06" y="-373.5" font-family="Times,serif" font-size="14.00">worthless.cli.scanner</text>
</g>
<!-- worthless.cli.commands.scan&#45;&gt;worthless.cli.scanner -->
<g id="edge52" class="edge">
<title>worthless.cli.commands.scan&#45;&gt;worthless.cli.scanner</title>
<path fill="none" stroke="black" d="M656.05,-324.3C667.57,-332.97 681.69,-343.6 694.23,-353.04"/>
<polygon fill="black" stroke="black" points="702.04,-358.92 691.35,-356.5 699.02,-356.65 694.05,-352.91 694.05,-352.91 694.05,-352.91 699.02,-356.65 696.76,-349.31 702.04,-358.92"/>
</g>
<!-- worthless.cli.commands.scan&#45;&gt;worthless.storage.repository -->
<g id="edge53" class="edge">
<title>worthless.cli.commands.scan&#45;&gt;worthless.storage.repository</title>
<path fill="none" stroke="black" d="M721.78,-307.77C812.38,-310.82 956.07,-321.99 1074.06,-360 1168.73,-390.49 1177.57,-431.43 1270.06,-468 1305.94,-482.19 1346.82,-493.57 1382.78,-502.09"/>
<polygon fill="black" stroke="black" points="1392.09,-504.26 1381.34,-506.37 1388.41,-503.4 1382.35,-501.99 1382.35,-501.99 1382.35,-501.99 1388.41,-503.4 1383.37,-497.61 1392.09,-504.26"/>
</g>
<!-- worthless.cli.commands.status&#45;&gt;worthless.cli.bootstrap -->
<g id="edge54" class="edge">
<title>worthless.cli.commands.status&#45;&gt;worthless.cli.bootstrap</title>
<path fill="none" stroke="black" d="M2652.12,-460.11C2595.23,-467.69 2521.41,-481.06 2459.06,-504 2414.52,-520.39 2367.88,-548.96 2337.54,-569.31"/>
<polygon fill="black" stroke="black" points="2329.29,-574.92 2335.03,-565.57 2332.42,-572.79 2337.56,-569.3 2337.56,-569.3 2337.56,-569.3 2332.42,-572.79 2340.09,-573.02 2329.29,-574.92"/>
</g>
<!-- worthless.cli.commands.status&#45;&gt;worthless.cli.console -->
<g id="edge55" class="edge">
<title>worthless.cli.commands.status&#45;&gt;worthless.cli.console</title>
<path fill="none" stroke="black" d="M2754.6,-468.37C2774.15,-501.72 2815.38,-577.68 2830.06,-648 2839.87,-694.99 2836.24,-708.4 2830.06,-756 2829,-764.21 2827.04,-772.96 2824.92,-780.94"/>
<polygon fill="black" stroke="black" points="2822.22,-790.39 2820.64,-779.54 2823.26,-786.75 2824.97,-780.77 2824.97,-780.77 2824.97,-780.77 2823.26,-786.75 2829.29,-782.01 2822.22,-790.39"/>
</g>
<!-- worthless.cli.commands.status&#45;&gt;worthless.cli.errors -->
<g id="edge56" class="edge">
<title>worthless.cli.commands.status&#45;&gt;worthless.cli.errors</title>
<path fill="none" stroke="black" d="M2748.19,-468.26C2757.35,-511.33 2774.27,-624.39 2716.06,-684 2676.21,-724.82 2515.63,-734.52 2420.6,-736.63"/>
<polygon fill="black" stroke="black" points="2410.84,-736.82 2420.75,-732.12 2414.63,-736.74 2420.84,-736.62 2420.84,-736.62 2420.84,-736.62 2414.63,-736.74 2420.93,-741.12 2410.84,-736.82"/>
</g>
<!-- worthless.cli.commands.status&#45;&gt;worthless.cli.process -->
<g id="edge57" class="edge">
<title>worthless.cli.commands.status&#45;&gt;worthless.cli.process</title>
<path fill="none" stroke="black" d="M2691.36,-468.48C2662.43,-478.08 2626.35,-490.05 2595.95,-500.14"/>
<polygon fill="black" stroke="black" points="2586.61,-503.23 2594.69,-495.81 2590.2,-502.04 2596.1,-500.09 2596.1,-500.09 2596.1,-500.09 2590.2,-502.04 2597.52,-504.36 2586.61,-503.23"/>
</g>
<!-- worthless.cli.commands.unlock&#45;&gt;worthless.cli.bootstrap -->
<g id="edge58" class="edge">
<title>worthless.cli.commands.unlock&#45;&gt;worthless.cli.bootstrap</title>
<path fill="none" stroke="black" d="M2186.81,-324.4C2193.59,-354.45 2209.25,-417.69 2231.06,-468 2246.6,-503.82 2270.17,-542.21 2286.29,-566.85"/>
<polygon fill="black" stroke="black" points="2291.61,-574.88 2282.34,-569.03 2289.53,-571.73 2286.09,-566.54 2286.09,-566.54 2286.09,-566.54 2289.53,-571.73 2289.84,-564.06 2291.61,-574.88"/>
</g>
<!-- worthless.cli.commands.unlock&#45;&gt;worthless.cli.commands.wrap -->
<g id="edge59" class="edge">
<title>worthless.cli.commands.unlock&#45;&gt;worthless.cli.commands.wrap</title>
<path fill="none" stroke="black" d="M2264.74,-324.48C2311.25,-334.44 2369.68,-346.95 2417.84,-357.26"/>
<polygon fill="black" stroke="black" points="2427.39,-359.3 2416.67,-361.61 2423.69,-358.51 2417.61,-357.21 2417.61,-357.21 2417.61,-357.21 2423.69,-358.51 2418.55,-352.81 2427.39,-359.3"/>
</g>
<!-- worthless.cli.commands.unlock&#45;&gt;worthless.cli.console -->
<g id="edge60" class="edge">
<title>worthless.cli.commands.unlock&#45;&gt;worthless.cli.console</title>
<path fill="none" stroke="black" d="M2277.87,-316.66C2368.88,-326.29 2510.12,-342.19 2632.06,-360 2678.16,-366.73 3011.51,-399.69 3045.06,-432 3074.2,-460.06 3064.06,-480.55 3064.06,-521 3064.06,-521 3064.06,-521 3064.06,-667 3064.06,-747.27 2965.01,-782.8 2892.1,-798.08"/>
<polygon fill="black" stroke="black" points="2882.74,-799.95 2891.67,-793.57 2886.45,-799.2 2892.55,-797.99 2892.55,-797.99 2892.55,-797.99 2886.45,-799.2 2893.43,-802.4 2882.74,-799.95"/>
</g>
<!-- worthless.cli.commands.unlock&#45;&gt;worthless.cli.dotenv_rewriter -->
<g id="edge61" class="edge">
<title>worthless.cli.commands.unlock&#45;&gt;worthless.cli.dotenv_rewriter</title>
<path fill="none" stroke="black" d="M2087.99,-310.12C1808.88,-319.39 1007.95,-346.99 953.06,-360 949.11,-360.94 860.45,-401.08 803.12,-427.13"/>
<polygon fill="black" stroke="black" points="794.27,-431.15 801.51,-422.92 797.71,-429.59 803.37,-427.02 803.37,-427.02 803.37,-427.02 797.71,-429.59 805.23,-431.11 794.27,-431.15"/>
</g>
<!-- worthless.cli.commands.unlock&#45;&gt;worthless.cli.errors -->
<g id="edge62" class="edge">
<title>worthless.cli.commands.unlock&#45;&gt;worthless.cli.errors</title>
<path fill="none" stroke="black" d="M2278.05,-323.29C2279.74,-323.53 2281.41,-323.77 2283.06,-324 2355.24,-334.11 2557.86,-308.13 2609.06,-360 2659.68,-411.28 2646.35,-632.39 2596.06,-684 2572.01,-708.68 2484.4,-723.04 2420.34,-730.44"/>
<polygon fill="black" stroke="black" points="2410.68,-731.52 2420.12,-725.93 2414.44,-731.1 2420.62,-730.41 2420.62,-730.41 2420.62,-730.41 2414.44,-731.1 2421.12,-734.88 2410.68,-731.52"/>
</g>
<!-- worthless.cli.commands.unlock&#45;&gt;worthless.crypto.splitter -->
<g id="edge63" class="edge">
<title>worthless.cli.commands.unlock&#45;&gt;worthless.crypto.splitter</title>
<path fill="none" stroke="black" d="M2116.23,-324.49C2051.39,-343.66 1952.3,-378.93 1879.06,-432 1855.31,-449.21 1834.18,-475.32 1820.26,-494.81"/>
<polygon fill="black" stroke="black" points="1814.73,-502.78 1816.74,-492 1816.88,-499.67 1820.43,-494.57 1820.43,-494.57 1820.43,-494.57 1816.88,-499.67 1824.13,-497.13 1814.73,-502.78"/>
</g>
<!-- worthless.crypto.types -->
<g id="node33" class="node">
<title>worthless.crypto.types</title>
<polygon fill="none" stroke="black" points="2178.19,-612 2039.94,-612 2039.94,-576 2178.19,-576 2178.19,-612"/>
<text xml:space="preserve" text-anchor="start" x="2047.94" y="-589.5" font-family="Times,serif" font-size="14.00">worthless.crypto.types</text>
</g>
<!-- worthless.cli.commands.unlock&#45;&gt;worthless.crypto.types -->
<g id="edge64" class="edge">
<title>worthless.cli.commands.unlock&#45;&gt;worthless.crypto.types</title>
<path fill="none" stroke="black" d="M2178.55,-324.46C2166.13,-372.44 2131.42,-506.61 2116.28,-565.12"/>
<polygon fill="black" stroke="black" points="2113.83,-574.59 2111.98,-563.78 2114.77,-570.93 2116.33,-564.91 2116.33,-564.91 2116.33,-564.91 2114.77,-570.93 2120.69,-566.03 2113.83,-574.59"/>
</g>
<!-- worthless.cli.commands.unlock&#45;&gt;worthless.storage.repository -->
<g id="edge65" class="edge">
<title>worthless.cli.commands.unlock&#45;&gt;worthless.storage.repository</title>
<path fill="none" stroke="black" d="M2103.88,-324.44C2012.33,-344.11 1856.91,-375.94 1722.06,-396 1646.26,-407.27 1430.35,-375.05 1379.06,-432 1368.36,-443.89 1370.84,-454.27 1379.06,-468 1386.8,-480.92 1398.88,-490.87 1411.99,-498.46"/>
<polygon fill="black" stroke="black" points="1420.58,-503.02 1409.64,-502.31 1417.24,-501.25 1411.74,-498.33 1411.74,-498.33 1411.74,-498.33 1417.24,-501.25 1413.85,-494.36 1420.58,-503.02"/>
</g>
<!-- worthless.cli.commands.up&#45;&gt;worthless.cli.bootstrap -->
<g id="edge66" class="edge">
<title>worthless.cli.commands.up&#45;&gt;worthless.cli.bootstrap</title>
<path fill="none" stroke="black" d="M2318.99,-468.1C2316.66,-478.44 2313.85,-491.92 2312.06,-504 2309.09,-524.07 2307.06,-546.87 2305.8,-564.37"/>
<polygon fill="black" stroke="black" points="2305.12,-574.32 2301.31,-564.04 2305.38,-570.55 2305.8,-564.34 2305.8,-564.34 2305.8,-564.34 2305.38,-570.55 2310.29,-564.65 2305.12,-574.32"/>
</g>
<!-- worthless.cli.commands.up&#45;&gt;worthless.cli.console -->
<g id="edge67" class="edge">
<title>worthless.cli.commands.up&#45;&gt;worthless.cli.console</title>
<path fill="none" stroke="black" d="M2346.84,-468.27C2427.45,-526.8 2690.5,-717.82 2783.29,-785.2"/>
<polygon fill="black" stroke="black" points="2791.25,-790.98 2780.51,-788.75 2788.19,-788.76 2783.16,-785.11 2783.16,-785.11 2783.16,-785.11 2788.19,-788.76 2785.8,-781.46 2791.25,-790.98"/>
</g>
<!-- worthless.cli.commands.up&#45;&gt;worthless.cli.errors -->
<g id="edge68" class="edge">
<title>worthless.cli.commands.up&#45;&gt;worthless.cli.errors</title>
<path fill="none" stroke="black" d="M2304.71,-468.45C2264.6,-508.73 2176.47,-610.39 2225.06,-684 2237.31,-702.55 2257.53,-714.64 2278.13,-722.49"/>
<polygon fill="black" stroke="black" points="2287.41,-725.72 2276.49,-726.69 2283.84,-724.48 2277.97,-722.44 2277.97,-722.44 2277.97,-722.44 2283.84,-724.48 2279.45,-718.19 2287.41,-725.72"/>
</g>
<!-- worthless.cli.commands.up&#45;&gt;worthless.cli.platform -->
<g id="edge69" class="edge">
<title>worthless.cli.commands.up&#45;&gt;worthless.cli.platform</title>
<path fill="none" stroke="black" d="M2336.61,-468.15C2366.15,-505.56 2436.53,-594.68 2471.55,-639.02"/>
<polygon fill="black" stroke="black" points="2477.7,-646.81 2467.97,-641.75 2475.36,-643.84 2471.5,-638.96 2471.5,-638.96 2471.5,-638.96 2475.36,-643.84 2475.03,-636.17 2477.7,-646.81"/>
</g>
<!-- worthless.cli.commands.up&#45;&gt;worthless.cli.process -->
<g id="edge70" class="edge">
<title>worthless.cli.commands.up&#45;&gt;worthless.cli.process</title>
<path fill="none" stroke="black" d="M2375.51,-468.48C2404.31,-478.08 2440.22,-490.05 2470.47,-500.14"/>
<polygon fill="black" stroke="black" points="2479.76,-503.23 2468.85,-504.34 2476.17,-502.04 2470.28,-500.07 2470.28,-500.07 2470.28,-500.07 2476.17,-502.04 2471.7,-495.8 2479.76,-503.23"/>
</g>
<!-- worthless.cli.commands.wrap&#45;&gt;worthless.cli.bootstrap -->
<g id="edge71" class="edge">
<title>worthless.cli.commands.wrap&#45;&gt;worthless.cli.bootstrap</title>
<path fill="none" stroke="black" d="M2491.79,-396.48C2466.99,-420.37 2421.46,-464.72 2384.06,-504 2364.12,-524.95 2342.21,-549.43 2326.37,-567.41"/>
<polygon fill="black" stroke="black" points="2319.92,-574.76 2323.14,-564.27 2322.41,-571.92 2326.52,-567.24 2326.52,-567.24 2326.52,-567.24 2322.41,-571.92 2329.9,-570.21 2319.92,-574.76"/>
</g>
<!-- worthless.cli.commands.wrap&#45;&gt;worthless.cli.commands.status -->
<g id="edge72" class="edge">
<title>worthless.cli.commands.wrap&#45;&gt;worthless.cli.commands.status</title>
<path fill="none" stroke="black" d="M2568.51,-396.48C2601.02,-406.21 2641.65,-418.36 2675.64,-428.53"/>
<polygon fill="black" stroke="black" points="2684.79,-431.27 2673.92,-432.71 2681.17,-430.19 2675.21,-428.4 2675.21,-428.4 2675.21,-428.4 2681.17,-430.19 2676.5,-424.09 2684.79,-431.27"/>
</g>
<!-- worthless.cli.commands.wrap&#45;&gt;worthless.cli.errors -->
<g id="edge73" class="edge">
<title>worthless.cli.commands.wrap&#45;&gt;worthless.cli.errors</title>
<path fill="none" stroke="black" d="M2519.59,-396.27C2530.23,-414.87 2548.54,-444.89 2568.06,-468 2583.29,-486.02 2597.6,-482.39 2607.06,-504 2630.66,-557.9 2611.94,-642.04 2569.06,-684 2548.04,-704.58 2476.32,-719.22 2420.41,-727.82"/>
<polygon fill="black" stroke="black" points="2410.67,-729.28 2419.89,-723.35 2414.41,-728.72 2420.56,-727.8 2420.56,-727.8 2420.56,-727.8 2414.41,-728.72 2421.23,-732.25 2410.67,-729.28"/>
</g>
<!-- worthless.cli.commands.wrap&#45;&gt;worthless.cli.platform -->
<g id="edge74" class="edge">
<title>worthless.cli.commands.wrap&#45;&gt;worthless.cli.platform</title>
<path fill="none" stroke="black" d="M2533.37,-396.3C2568.57,-424.72 2629,-483.76 2607.06,-540 2590.72,-581.89 2553.04,-618.23 2525.25,-640.77"/>
<polygon fill="black" stroke="black" points="2517.56,-646.83 2522.62,-637.11 2520.53,-644.49 2525.41,-640.64 2525.41,-640.64 2525.41,-640.64 2520.53,-644.49 2528.2,-644.17 2517.56,-646.83"/>
</g>
<!-- worthless.cli.commands.wrap&#45;&gt;worthless.cli.process -->
<g id="edge75" class="edge">
<title>worthless.cli.commands.wrap&#45;&gt;worthless.cli.process</title>
<path fill="none" stroke="black" d="M2512.88,-396.41C2516.78,-420.5 2523.87,-464.25 2528.52,-492.97"/>
<polygon fill="black" stroke="black" points="2530.1,-502.69 2524.06,-493.53 2529.49,-498.95 2528.5,-492.82 2528.5,-492.82 2528.5,-492.82 2529.49,-498.95 2532.94,-492.1 2530.1,-502.69"/>
</g>
<!-- worthless.cli.commands.wrap&#45;&gt;worthless.storage.repository -->
<g id="edge76" class="edge">
<title>worthless.cli.commands.wrap&#45;&gt;worthless.storage.repository</title>
<path fill="none" stroke="black" d="M2420.05,-381.62C2157.15,-389.46 1407.78,-413.42 1390.06,-432 1379.02,-443.58 1382.19,-454.07 1390.06,-468 1397.2,-480.62 1408.67,-490.57 1421.01,-498.27"/>
<polygon fill="black" stroke="black" points="1429.5,-503.13 1418.59,-502.07 1426.22,-501.25 1420.82,-498.16 1420.82,-498.16 1420.82,-498.16 1426.22,-501.25 1423.05,-494.26 1429.5,-503.13"/>
</g>
<!-- worthless.cli.console&#45;&gt;worthless.cli.errors -->
<g id="edge77" class="edge">
<title>worthless.cli.console&#45;&gt;worthless.cli.errors</title>
<path fill="none" stroke="black" d="M2750.67,-798.45C2663.62,-785.04 2510.38,-762.08 2420.42,-748.96"/>
<polygon fill="black" stroke="black" points="2410.71,-747.55 2421.25,-744.54 2414.45,-748.09 2420.6,-748.99 2420.6,-748.99 2420.6,-748.99 2414.45,-748.09 2419.95,-753.44 2410.71,-747.55"/>
</g>
<!-- worthless.cli.default_command&#45;&gt;worthless.cli.bootstrap -->
<g id="edge78" class="edge">
<title>worthless.cli.default_command&#45;&gt;worthless.cli.bootstrap</title>
<path fill="none" stroke="black" d="M2061.49,-252.45C2063.51,-270.93 2068.26,-300.62 2079.06,-324 2104.45,-378.96 2203.93,-495.59 2245.06,-540 2254.18,-549.84 2264.91,-559.87 2274.7,-568.52"/>
<polygon fill="black" stroke="black" points="2282.07,-574.93 2271.57,-571.77 2279.22,-572.45 2274.52,-568.37 2274.52,-568.37 2274.52,-568.37 2279.22,-572.45 2277.47,-564.97 2282.07,-574.93"/>
</g>
<!-- worthless.cli.default_command&#45;&gt;worthless.cli.commands.lock -->
<g id="edge79" class="edge">
<title>worthless.cli.default_command&#45;&gt;worthless.cli.commands.lock</title>
<path fill="none" stroke="black" d="M1965.85,-246.76C1863.92,-259.47 1702.09,-279.67 1598.26,-292.62"/>
<polygon fill="black" stroke="black" points="1588.36,-293.86 1597.72,-288.15 1592.11,-293.39 1598.28,-292.62 1598.28,-292.62 1598.28,-292.62 1592.11,-293.39 1598.84,-297.09 1588.36,-293.86"/>
</g>
<!-- worthless.cli.default_command&#45;&gt;worthless.cli.commands.up -->
<g id="edge80" class="edge">
<title>worthless.cli.default_command&#45;&gt;worthless.cli.commands.up</title>
<path fill="none" stroke="black" d="M2154.41,-246.8C2208.05,-255.42 2268.19,-268.95 2287.06,-288 2322.02,-323.28 2326.14,-384.63 2325.16,-420.55"/>
<polygon fill="black" stroke="black" points="2324.72,-430.47 2320.66,-420.28 2324.88,-426.69 2325.16,-420.47 2325.16,-420.47 2325.16,-420.47 2324.88,-426.69 2329.65,-420.67 2324.72,-430.47"/>
</g>
<!-- worthless.cli.default_command&#45;&gt;worthless.cli.console -->
<g id="edge81" class="edge">
<title>worthless.cli.default_command&#45;&gt;worthless.cli.console</title>
<path fill="none" stroke="black" d="M2154.15,-241.25C2378.08,-257.97 2934.13,-310.96 3069.06,-432 3100.47,-460.17 3102.06,-478.81 3102.06,-521 3102.06,-521 3102.06,-521 3102.06,-667 3102.06,-760.87 2976.94,-792.69 2892.21,-803.47"/>
<polygon fill="black" stroke="black" points="2882.53,-804.63 2891.93,-798.97 2886.28,-804.18 2892.46,-803.44 2892.46,-803.44 2892.46,-803.44 2886.28,-804.18 2892.99,-807.91 2882.53,-804.63"/>
</g>
<!-- worthless.cli.default_command&#45;&gt;worthless.cli.dotenv_rewriter -->
<g id="edge82" class="edge">
<title>worthless.cli.default_command&#45;&gt;worthless.cli.dotenv_rewriter</title>
<path fill="none" stroke="black" d="M1965.75,-235.53C1713.51,-238.37 1029.23,-255.74 833.06,-360 829.36,-361.97 798.56,-397.73 776.8,-423.32"/>
<polygon fill="black" stroke="black" points="770.6,-430.61 773.65,-420.08 773.05,-427.73 777.08,-422.99 777.08,-422.99 777.08,-422.99 773.05,-427.73 780.51,-425.9 770.6,-430.61"/>
</g>
<!-- worthless.cli.default_command&#45;&gt;worthless.cli.errors -->
<g id="edge83" class="edge">
<title>worthless.cli.default_command&#45;&gt;worthless.cli.errors</title>
<path fill="none" stroke="black" d="M2038.06,-252.36C1962.87,-311.71 1720.68,-502.89 1720.06,-504 1696.73,-546.1 1681.48,-574.83 1712.06,-612 1783.1,-698.33 2126.66,-725.93 2277.64,-733.98"/>
<polygon fill="black" stroke="black" points="2287.39,-734.48 2277.17,-738.46 2283.61,-734.29 2277.4,-733.96 2277.4,-733.96 2277.4,-733.96 2283.61,-734.29 2277.64,-729.47 2287.39,-734.48"/>
</g>
<!-- worthless.cli.default_command&#45;&gt;worthless.cli.process -->
<g id="edge84" class="edge">
<title>worthless.cli.default_command&#45;&gt;worthless.cli.process</title>
<path fill="none" stroke="black" d="M2154.16,-240.92C2203.76,-247.36 2264.1,-260.66 2312.06,-288 2368.63,-320.25 2366.32,-348.69 2411.06,-396 2444.2,-431.03 2483.25,-470.78 2508.07,-495.86"/>
<polygon fill="black" stroke="black" points="2515.06,-502.91 2504.82,-498.97 2512.4,-500.22 2508.02,-495.81 2508.02,-495.81 2508.02,-495.81 2512.4,-500.22 2511.22,-492.64 2515.06,-502.91"/>
</g>
<!-- worthless.cli.default_command&#45;&gt;worthless.storage.repository -->
<g id="edge85" class="edge">
<title>worthless.cli.default_command&#45;&gt;worthless.storage.repository</title>
<path fill="none" stroke="black" d="M1965.84,-252.28C1918.25,-261.65 1859.78,-274.14 1808.06,-288 1708.69,-314.63 1428.45,-348.7 1368.06,-432 1358.67,-444.95 1359.55,-454.45 1368.06,-468 1376.36,-481.2 1388.96,-491.19 1402.71,-498.72"/>
<polygon fill="black" stroke="black" points="1411.29,-503.01 1400.33,-502.56 1407.91,-501.32 1402.35,-498.54 1402.35,-498.54 1402.35,-498.54 1407.91,-501.32 1404.36,-494.51 1411.29,-503.01"/>
</g>
<!-- worthless.cli.dotenv_rewriter&#45;&gt;worthless.cli.key_patterns -->
<g id="edge86" class="edge">
<title>worthless.cli.dotenv_rewriter&#45;&gt;worthless.cli.key_patterns</title>
<path fill="none" stroke="black" d="M722.84,-468.48C706.1,-477.57 685.43,-488.78 667.51,-498.51"/>
<polygon fill="black" stroke="black" points="658.94,-503.16 665.59,-494.43 662.27,-501.35 667.73,-498.39 667.73,-498.39 667.73,-498.39 662.27,-501.35 669.88,-502.34 658.94,-503.16"/>
</g>
<!-- worthless.cli.dotenv_rewriter&#45;&gt;worthless.storage.repository -->
<g id="edge123" class="edge">
<title>worthless.cli.dotenv_rewriter&#45;&gt;worthless.storage.repository</title>
<path fill="none" stroke="black" stroke-dasharray="5,2" d="M842.86,-462.73C858.56,-464.64 874.78,-466.48 890.06,-468 1105.59,-489.41 1163.8,-476.8 1382.21,-503.85"/>
<polygon fill="black" stroke="black" points="1391.86,-505.06 1381.38,-508.28 1388.11,-504.59 1381.94,-503.82 1381.94,-503.82 1381.94,-503.82 1388.11,-504.59 1382.5,-499.35 1391.86,-505.06"/>
</g>
<!-- worthless.cli.enroll_stub -->
<g id="node23" class="node">
<title>worthless.cli.enroll_stub</title>
<polygon fill="none" stroke="black" points="1548.81,-468 1399.31,-468 1399.31,-432 1548.81,-432 1548.81,-468"/>
<text xml:space="preserve" text-anchor="start" x="1407.31" y="-445.5" font-family="Times,serif" font-size="14.00">worthless.cli.enroll_stub</text>
</g>
<!-- worthless.cli.enroll_stub&#45;&gt;worthless.crypto.splitter -->
<g id="edge87" class="edge">
<title>worthless.cli.enroll_stub&#45;&gt;worthless.crypto.splitter</title>
<path fill="none" stroke="black" d="M1549.13,-466.97C1599.5,-477.69 1665.95,-491.83 1718.24,-502.95"/>
<polygon fill="black" stroke="black" points="1727.98,-505.02 1717.26,-507.34 1724.28,-504.24 1718.2,-502.94 1718.2,-502.94 1718.2,-502.94 1724.28,-504.24 1719.13,-498.54 1727.98,-505.02"/>
</g>
<!-- worthless.cli.enroll_stub&#45;&gt;worthless.storage.repository -->
<g id="edge88" class="edge">
<title>worthless.cli.enroll_stub&#45;&gt;worthless.storage.repository</title>
<path fill="none" stroke="black" d="M1475.05,-468.3C1475.47,-475.68 1475.98,-484.48 1476.45,-492.75"/>
<polygon fill="black" stroke="black" points="1477.02,-502.68 1471.95,-492.95 1476.8,-498.9 1476.45,-492.7 1476.45,-492.7 1476.45,-492.7 1476.8,-498.9 1480.94,-492.44 1477.02,-502.68"/>
</g>
<!-- worthless.cli.errors&#45;&gt;worthless.cli.console -->
<g id="edge89" class="edge">
<title>worthless.cli.errors&#45;&gt;worthless.cli.console</title>
<path fill="none" stroke="black" d="M2409.63,-748.81C2494.24,-761.86 2647.62,-784.86 2739.87,-798.33"/>
<polygon fill="black" stroke="black" points="2749.61,-799.75 2739.06,-802.76 2745.86,-799.2 2739.71,-798.31 2739.71,-798.31 2739.71,-798.31 2745.86,-799.2 2740.36,-793.85 2749.61,-799.75"/>
</g>
<!-- worthless.cli.keystore&#45;&gt;worthless.cli.errors -->
<g id="edge90" class="edge">
<title>worthless.cli.keystore&#45;&gt;worthless.cli.errors</title>
<path fill="none" stroke="black" d="M2312.93,-684.3C2318.39,-692.27 2325,-701.9 2331.05,-710.74"/>
<polygon fill="black" stroke="black" points="2336.65,-718.89 2327.28,-713.19 2334.51,-715.77 2330.99,-710.64 2330.99,-710.64 2330.99,-710.64 2334.51,-715.77 2334.7,-708.1 2336.65,-718.89"/>
</g>
<!-- worthless.cli.process&#45;&gt;worthless.cli.bootstrap -->
<g id="edge124" class="edge">
<title>worthless.cli.process&#45;&gt;worthless.cli.bootstrap</title>
<path fill="none" stroke="black" stroke-dasharray="5,2" d="M2475.87,-540.48C2444.19,-550.17 2404.63,-562.26 2371.45,-572.4"/>
<polygon fill="black" stroke="black" points="2362.09,-575.26 2370.34,-568.04 2365.71,-574.16 2371.65,-572.34 2371.65,-572.34 2371.65,-572.34 2365.71,-574.16 2372.97,-576.64 2362.09,-575.26"/>
</g>
<!-- worthless.cli.process&#45;&gt;worthless.cli.keystore -->
<g id="edge91" class="edge">
<title>worthless.cli.process&#45;&gt;worthless.cli.keystore</title>
<path fill="none" stroke="black" d="M2504.62,-540.41C2462.93,-565.92 2385.19,-613.51 2338.78,-641.91"/>
<polygon fill="black" stroke="black" points="2330.42,-647.03 2336.6,-637.97 2333.65,-645.06 2338.95,-641.81 2338.95,-641.81 2338.95,-641.81 2333.65,-645.06 2341.3,-645.65 2330.42,-647.03"/>
</g>
<!-- worthless.cli.process&#45;&gt;worthless.cli.platform -->
<g id="edge92" class="edge">
<title>worthless.cli.process&#45;&gt;worthless.cli.platform</title>
<path fill="none" stroke="black" d="M2528.04,-540.41C2521.05,-564.6 2508.34,-608.64 2500.05,-637.35"/>
<polygon fill="black" stroke="black" points="2497.34,-646.72 2495.79,-635.86 2498.39,-643.09 2500.12,-637.11 2500.12,-637.11 2500.12,-637.11 2498.39,-643.09 2504.44,-638.36 2497.34,-646.72"/>
</g>
<!-- worthless.cli.scanner&#45;&gt;worthless.cli.dotenv_rewriter -->
<g id="edge93" class="edge">
<title>worthless.cli.scanner&#45;&gt;worthless.cli.dotenv_rewriter</title>
<path fill="none" stroke="black" d="M733.23,-396.3C736.39,-403.93 740.18,-413.08 743.71,-421.6"/>
<polygon fill="black" stroke="black" points="747.51,-430.77 739.53,-423.25 746.06,-427.28 743.68,-421.53 743.68,-421.53 743.68,-421.53 746.06,-427.28 747.84,-419.81 747.51,-430.77"/>
</g>
<!-- worthless.cli.scanner&#45;&gt;worthless.cli.key_patterns -->
<g id="edge94" class="edge">
<title>worthless.cli.scanner&#45;&gt;worthless.cli.key_patterns</title>
<path fill="none" stroke="black" d="M697.28,-396.49C684.13,-405.68 669.26,-417.96 659.06,-432 645.83,-450.22 637.32,-474.34 632.26,-492.88"/>
<polygon fill="black" stroke="black" points="629.85,-502.42 627.94,-491.62 630.78,-498.75 632.3,-492.72 632.3,-492.72 632.3,-492.72 630.78,-498.75 636.67,-493.83 629.85,-502.42"/>
</g>
<!-- worthless.crypto -->
<g id="node30" class="node">
<title>worthless.crypto</title>
<polygon fill="none" stroke="black" points="1994.06,-468 1888.06,-468 1888.06,-432 1994.06,-432 1994.06,-468"/>
<text xml:space="preserve" text-anchor="start" x="1896.06" y="-445.5" font-family="Times,serif" font-size="14.00">worthless.crypto</text>
</g>
<!-- worthless.crypto&#45;&gt;worthless.crypto.splitter -->
<g id="edge95" class="edge">
<title>worthless.crypto&#45;&gt;worthless.crypto.splitter</title>
<path fill="none" stroke="black" d="M1906.6,-468.48C1888.51,-477.66 1866.17,-488.99 1846.87,-498.78"/>
<polygon fill="black" stroke="black" points="1838.18,-503.19 1845.06,-494.65 1841.55,-501.48 1847.1,-498.66 1847.1,-498.66 1847.1,-498.66 1841.55,-501.48 1849.13,-502.68 1838.18,-503.19"/>
</g>
<!-- worthless.crypto&#45;&gt;worthless.crypto.types -->
<g id="edge96" class="edge">
<title>worthless.crypto&#45;&gt;worthless.crypto.types</title>
<path fill="none" stroke="black" d="M1950.8,-468.21C1962.44,-487.58 1983.45,-519.08 2008.06,-540 2022.25,-552.05 2039.63,-562.4 2055.95,-570.67"/>
<polygon fill="black" stroke="black" points="2064.84,-575.01 2053.88,-574.67 2061.45,-573.35 2055.86,-570.62 2055.86,-570.62 2055.86,-570.62 2061.45,-573.35 2057.83,-566.58 2064.84,-575.01"/>
</g>
<!-- worthless.exceptions -->
<g id="node35" class="node">
<title>worthless.exceptions</title>
<polygon fill="none" stroke="black" points="2021.69,-612 1892.44,-612 1892.44,-576 2021.69,-576 2021.69,-612"/>
<text xml:space="preserve" text-anchor="start" x="1900.44" y="-589.5" font-family="Times,serif" font-size="14.00">worthless.exceptions</text>
</g>
<!-- worthless.crypto&#45;&gt;worthless.exceptions -->
<g id="edge97" class="edge">
<title>worthless.crypto&#45;&gt;worthless.exceptions</title>
<path fill="none" stroke="black" d="M1943.03,-468.41C1945.74,-492.5 1950.67,-536.25 1953.9,-564.97"/>
<polygon fill="black" stroke="black" points="1955,-574.68 1949.41,-565.25 1954.58,-570.92 1953.88,-564.74 1953.88,-564.74 1953.88,-564.74 1954.58,-570.92 1958.35,-564.24 1955,-574.68"/>
</g>
<!-- worthless.crypto.charsets -->
<g id="node31" class="node">
<title>worthless.crypto.charsets</title>
<polygon fill="none" stroke="black" points="1874.69,-612 1721.44,-612 1721.44,-576 1874.69,-576 1874.69,-612"/>
<text xml:space="preserve" text-anchor="start" x="1729.44" y="-589.5" font-family="Times,serif" font-size="14.00">worthless.crypto.charsets</text>
</g>
<!-- worthless.crypto.splitter&#45;&gt;worthless.crypto.charsets -->
<g id="edge98" class="edge">
<title>worthless.crypto.splitter&#45;&gt;worthless.crypto.charsets</title>
<path fill="none" stroke="black" d="M1801.83,-540.3C1801.3,-547.68 1800.67,-556.48 1800.08,-564.75"/>
<polygon fill="black" stroke="black" points="1799.37,-574.68 1795.6,-564.39 1799.64,-570.91 1800.08,-564.71 1800.08,-564.71 1800.08,-564.71 1799.64,-570.91 1804.57,-565.03 1799.37,-574.68"/>
</g>
<!-- worthless.crypto.splitter&#45;&gt;worthless.crypto.types -->
<g id="edge99" class="edge">
<title>worthless.crypto.splitter&#45;&gt;worthless.crypto.types</title>
<path fill="none" stroke="black" d="M1877.14,-539.95C1923,-550.44 1981.9,-563.91 2028.86,-574.65"/>
<polygon fill="black" stroke="black" points="2038.42,-576.84 2027.67,-579 2034.73,-576 2028.67,-574.61 2028.67,-574.61 2028.67,-574.61 2034.73,-576 2029.67,-570.22 2038.42,-576.84"/>
</g>
<!-- worthless.crypto.splitter&#45;&gt;worthless.exceptions -->
<g id="edge100" class="edge">
<title>worthless.crypto.splitter&#45;&gt;worthless.exceptions</title>
<path fill="none" stroke="black" d="M1841.53,-540.48C1861.91,-549.75 1887.14,-561.22 1908.82,-571.07"/>
<polygon fill="black" stroke="black" points="1917.71,-575.11 1906.75,-575.07 1914.27,-573.55 1908.61,-570.98 1908.61,-570.98 1908.61,-570.98 1914.27,-573.55 1910.47,-566.88 1917.71,-575.11"/>
</g>
<!-- worthless.defaults -->
<g id="node34" class="node">
<title>worthless.defaults</title>
<polygon fill="none" stroke="black" points="1535.19,-612 1420.94,-612 1420.94,-576 1535.19,-576 1535.19,-612"/>
<text xml:space="preserve" text-anchor="start" x="1428.94" y="-589.5" font-family="Times,serif" font-size="14.00">worthless.defaults</text>
</g>
<!-- worthless.mcp -->
<g id="node36" class="node">
<title>worthless.mcp</title>
<polygon fill="none" stroke="black" points="2682.81,-36 2587.31,-36 2587.31,0 2682.81,0 2682.81,-36"/>
<text xml:space="preserve" text-anchor="start" x="2595.31" y="-13.5" font-family="Times,serif" font-size="14.00">worthless.mcp</text>
</g>
<!-- worthless.mcp.server&#45;&gt;worthless.cli.bootstrap -->
<g id="edge101" class="edge">
<title>worthless.mcp.server&#45;&gt;worthless.cli.bootstrap</title>
<path fill="none" stroke="black" d="M1225.45,-237.81C1381.09,-246.77 1778.26,-283.63 2068.06,-432 2138.64,-468.13 2143.82,-496.43 2210.06,-540 2226.27,-550.66 2244.73,-561.36 2260.99,-570.33"/>
<polygon fill="black" stroke="black" points="2269.71,-575.09 2258.78,-574.25 2266.39,-573.28 2260.93,-570.3 2260.93,-570.3 2260.93,-570.3 2266.39,-573.28 2263.09,-566.35 2269.71,-575.09"/>
</g>
<!-- worthless.mcp.server&#45;&gt;worthless.cli.commands.lock -->
<g id="edge102" class="edge">
<title>worthless.mcp.server&#45;&gt;worthless.cli.commands.lock</title>
<path fill="none" stroke="black" d="M1225.43,-248.66C1276.08,-259.09 1346.58,-273.61 1403.34,-285.29"/>
<polygon fill="black" stroke="black" points="1412.94,-287.27 1402.24,-289.66 1409.23,-286.51 1403.14,-285.25 1403.14,-285.25 1403.14,-285.25 1409.23,-286.51 1404.05,-280.84 1412.94,-287.27"/>
</g>
<!-- worthless.mcp.server&#45;&gt;worthless.cli.commands.scan -->
<g id="edge103" class="edge">
<title>worthless.mcp.server&#45;&gt;worthless.cli.commands.scan</title>
<path fill="none" stroke="black" d="M1092.6,-243.35C1011.81,-253.56 871.37,-271.52 751.06,-288 744.95,-288.84 738.67,-289.71 732.33,-290.6"/>
<polygon fill="black" stroke="black" points="722.85,-291.93 732.12,-286.08 726.59,-291.41 732.75,-290.54 732.75,-290.54 732.75,-290.54 726.59,-291.41 733.38,-294.99 722.85,-291.93"/>
</g>
<!-- worthless.mcp.server&#45;&gt;worthless.cli.commands.status -->
<g id="edge104" class="edge">
<title>worthless.mcp.server&#45;&gt;worthless.cli.commands.status</title>
<path fill="none" stroke="black" d="M1225.48,-234.58C1400.1,-234.24 1886.28,-238.24 2287.06,-288 2446.83,-307.84 2497.72,-288.71 2642.06,-360 2673.41,-375.48 2702.76,-403.02 2721.86,-423.38"/>
<polygon fill="black" stroke="black" points="2728.57,-430.71 2718.5,-426.37 2726.02,-427.92 2721.82,-423.33 2721.82,-423.33 2721.82,-423.33 2726.02,-427.92 2725.14,-420.29 2728.57,-430.71"/>
</g>
<!-- worthless.mcp.server&#45;&gt;worthless.cli.errors -->
<g id="edge105" class="edge">
<title>worthless.mcp.server&#45;&gt;worthless.cli.errors</title>
<path fill="none" stroke="black" d="M1092.71,-237.29C941.87,-242.97 582.65,-259.37 536.06,-288 496.45,-312.35 481.06,-330.5 481.06,-377 481.06,-377 481.06,-377 481.06,-451 481.06,-494.01 490.19,-508.12 519.06,-540 541.36,-564.62 619.11,-599.95 650.06,-612 775.42,-660.82 810.83,-665.37 944.06,-684 1205.66,-720.58 2029.11,-733.19 2277.47,-736.21"/>
<polygon fill="black" stroke="black" points="2287.29,-736.33 2277.23,-740.71 2283.5,-736.29 2277.29,-736.21 2277.29,-736.21 2277.29,-736.21 2283.5,-736.29 2277.34,-731.71 2287.29,-736.33"/>
</g>
<!-- worthless.mcp.server&#45;&gt;worthless.cli.scanner -->
<g id="edge106" class="edge">
<title>worthless.mcp.server&#45;&gt;worthless.cli.scanner</title>
<path fill="none" stroke="black" d="M1092.55,-239.54C1004.13,-246.49 853.41,-261.79 805.06,-288 778.25,-302.53 756.09,-329.9 742.14,-350.47"/>
<polygon fill="black" stroke="black" points="736.8,-358.63 738.5,-347.8 738.87,-355.46 742.27,-350.26 742.27,-350.26 742.27,-350.26 738.87,-355.46 746.04,-352.72 736.8,-358.63"/>
</g>
<!-- worthless.proxy -->
<g id="node38" class="node">
<title>worthless.proxy</title>
<polygon fill="none" stroke="black" points="1064.56,-396 961.56,-396 961.56,-360 1064.56,-360 1064.56,-396"/>
<text xml:space="preserve" text-anchor="start" x="969.56" y="-373.5" font-family="Times,serif" font-size="14.00">worthless.proxy</text>
</g>
<!-- worthless.proxy.app -->
<g id="node39" class="node">
<title>worthless.proxy.app</title>
<polygon fill="none" stroke="black" points="1024.81,-468 899.31,-468 899.31,-432 1024.81,-432 1024.81,-468"/>
<text xml:space="preserve" text-anchor="start" x="907.31" y="-445.5" font-family="Times,serif" font-size="14.00">worthless.proxy.app</text>
</g>
<!-- worthless.proxy&#45;&gt;worthless.proxy.app -->
<g id="edge107" class="edge">
<title>worthless.proxy&#45;&gt;worthless.proxy.app</title>
<path fill="none" stroke="black" d="M1000.46,-396.3C994.59,-404.36 987.49,-414.11 980.99,-423.02"/>
<polygon fill="black" stroke="black" points="975.24,-430.91 977.49,-420.18 977.47,-427.85 981.13,-422.83 981.13,-422.83 981.13,-422.83 977.47,-427.85 984.77,-425.48 975.24,-430.91"/>
</g>
<!-- worthless.proxy.app&#45;&gt;worthless.adapters.registry -->
<g id="edge108" class="edge">
<title>worthless.proxy.app&#45;&gt;worthless.adapters.registry</title>
<path fill="none" stroke="black" d="M899.03,-461.31C883.68,-463.66 867.3,-466.04 852.06,-468 703.26,-487.1 529.7,-503.71 426.01,-513.03"/>
<polygon fill="black" stroke="black" points="416.18,-513.91 425.74,-508.54 419.94,-513.57 426.14,-513.02 426.14,-513.02 426.14,-513.02 419.94,-513.57 426.54,-517.5 416.18,-513.91"/>
</g>
<!-- worthless.proxy.app&#45;&gt;worthless.adapters.types -->
<g id="edge109" class="edge">
<title>worthless.proxy.app&#45;&gt;worthless.adapters.types</title>
<path fill="none" stroke="black" d="M899.02,-465.21C842.02,-478.33 765.08,-496.84 752.06,-504 731.68,-515.21 733.62,-527.4 714.06,-540 639.49,-588.06 543.4,-623.57 478.75,-644.21"/>
<polygon fill="black" stroke="black" points="469.42,-647.16 477.6,-639.86 473.02,-646.02 478.95,-644.15 478.95,-644.15 478.95,-644.15 473.02,-646.02 480.31,-648.44 469.42,-647.16"/>
</g>
<!-- worthless.proxy.app&#45;&gt;worthless.crypto.splitter -->
<g id="edge110" class="edge">
<title>worthless.proxy.app&#45;&gt;worthless.crypto.splitter</title>
<path fill="none" stroke="black" d="M1025.06,-461.64C1040.41,-463.98 1056.8,-466.27 1072.06,-468 1293.45,-493.03 1349.85,-487.82 1572.06,-504 1620.3,-507.51 1674.21,-511.48 1717.8,-514.69"/>
<polygon fill="black" stroke="black" points="1727.73,-515.43 1717.42,-519.18 1723.96,-515.15 1717.75,-514.69 1717.75,-514.69 1717.75,-514.69 1723.96,-515.15 1718.09,-510.2 1727.73,-515.43"/>
</g>
<!-- worthless.proxy.config -->
<g id="node40" class="node">
<title>worthless.proxy.config</title>
<polygon fill="none" stroke="black" points="1375.31,-540 1234.81,-540 1234.81,-504 1375.31,-504 1375.31,-540"/>
<text xml:space="preserve" text-anchor="start" x="1242.81" y="-517.5" font-family="Times,serif" font-size="14.00">worthless.proxy.config</text>
</g>
<!-- worthless.proxy.app&#45;&gt;worthless.proxy.config -->
<g id="edge111" class="edge">
<title>worthless.proxy.app&#45;&gt;worthless.proxy.config</title>
<path fill="none" stroke="black" d="M1024.97,-463.84C1080.89,-475.25 1162.98,-492 1223.85,-504.42"/>
<polygon fill="black" stroke="black" points="1233.37,-506.37 1222.68,-508.78 1229.67,-505.61 1223.58,-504.37 1223.58,-504.37 1223.58,-504.37 1229.67,-505.61 1224.48,-499.96 1233.37,-506.37"/>
</g>
<!-- worthless.proxy.errors -->
<g id="node41" class="node">
<title>worthless.proxy.errors</title>
<polygon fill="none" stroke="black" points="942.81,-612 805.31,-612 805.31,-576 942.81,-576 942.81,-612"/>
<text xml:space="preserve" text-anchor="start" x="813.31" y="-589.5" font-family="Times,serif" font-size="14.00">worthless.proxy.errors</text>
</g>
<!-- worthless.proxy.app&#45;&gt;worthless.proxy.errors -->
<g id="edge112" class="edge">
<title>worthless.proxy.app&#45;&gt;worthless.proxy.errors</title>
<path fill="none" stroke="black" d="M951.27,-468.41C936.08,-492.92 908.27,-537.81 890.5,-566.48"/>
<polygon fill="black" stroke="black" points="885.31,-574.85 886.75,-563.98 887.3,-571.64 890.58,-566.35 890.58,-566.35 890.58,-566.35 887.3,-571.64 894.4,-568.72 885.31,-574.85"/>
</g>
<!-- worthless.proxy.metering -->
<g id="node42" class="node">
<title>worthless.proxy.metering</title>
<polygon fill="none" stroke="black" points="1141.44,-540 986.69,-540 986.69,-504 1141.44,-504 1141.44,-540"/>
<text xml:space="preserve" text-anchor="start" x="994.69" y="-517.5" font-family="Times,serif" font-size="14.00">worthless.proxy.metering</text>
</g>
<!-- worthless.proxy.app&#45;&gt;worthless.proxy.metering -->
<g id="edge113" class="edge">
<title>worthless.proxy.app&#45;&gt;worthless.proxy.metering</title>
<path fill="none" stroke="black" d="M987.54,-468.48C1000.29,-477.24 1015.91,-487.96 1029.71,-497.42"/>
<polygon fill="black" stroke="black" points="1037.91,-503.05 1027.12,-501.1 1034.79,-500.91 1029.66,-497.39 1029.66,-497.39 1029.66,-497.39 1034.79,-500.91 1032.21,-493.68 1037.91,-503.05"/>
</g>
<!-- worthless.proxy.rules -->
<g id="node43" class="node">
<title>worthless.proxy.rules</title>
<polygon fill="none" stroke="black" points="893.19,-540 760.94,-540 760.94,-504 893.19,-504 893.19,-540"/>
<text xml:space="preserve" text-anchor="start" x="768.94" y="-517.5" font-family="Times,serif" font-size="14.00">worthless.proxy.rules</text>
</g>
<!-- worthless.proxy.app&#45;&gt;worthless.proxy.rules -->
<g id="edge114" class="edge">
<title>worthless.proxy.app&#45;&gt;worthless.proxy.rules</title>
<path fill="none" stroke="black" d="M928.35,-468.48C910.74,-477.61 888.99,-488.89 870.17,-498.65"/>
<polygon fill="black" stroke="black" points="861.43,-503.18 868.24,-494.58 864.79,-501.44 870.31,-498.58 870.31,-498.58 870.31,-498.58 864.79,-501.44 872.38,-502.57 861.43,-503.18"/>
</g>
<!-- worthless.proxy.app&#45;&gt;worthless.storage.repository -->
<g id="edge115" class="edge">
<title>worthless.proxy.app&#45;&gt;worthless.storage.repository</title>
<path fill="none" stroke="black" d="M1025.12,-461.17C1040.46,-463.53 1056.84,-465.95 1072.06,-468 1206.88,-486.19 1244.11,-483.71 1382.29,-503.8"/>
<polygon fill="black" stroke="black" points="1392.1,-505.24 1381.55,-508.24 1388.35,-504.69 1382.2,-503.78 1382.2,-503.78 1382.2,-503.78 1388.35,-504.69 1382.86,-499.33 1392.1,-505.24"/>
</g>
<!-- worthless.proxy.app&#45;&gt;worthless.storage.schema -->
<g id="edge116" class="edge">
<title>worthless.proxy.app&#45;&gt;worthless.storage.schema</title>
<path fill="none" stroke="black" d="M960.57,-468.38C959.84,-487.92 961.64,-519.56 978.06,-540 1029.98,-604.61 1121.09,-636.23 1189.32,-651.44"/>
<polygon fill="black" stroke="black" points="1198.88,-653.49 1188.16,-655.79 1195.18,-652.7 1189.1,-651.39 1189.1,-651.39 1189.1,-651.39 1195.18,-652.7 1190.04,-646.99 1198.88,-653.49"/>
</g>
<!-- worthless.proxy.config&#45;&gt;worthless.cli.keystore -->
<g id="edge117" class="edge">
<title>worthless.proxy.config&#45;&gt;worthless.cli.keystore</title>
<path fill="none" stroke="black" d="M1375.53,-538.65C1487.56,-563.5 1695.42,-609.44 1712.06,-612 1893.75,-639.93 2109.39,-654.71 2222.63,-661.08"/>
<polygon fill="black" stroke="black" points="2232.38,-661.62 2222.15,-665.56 2228.61,-661.41 2222.4,-661.07 2222.4,-661.07 2222.4,-661.07 2228.61,-661.41 2222.65,-656.58 2232.38,-661.62"/>
</g>
<!-- worthless.proxy.rules&#45;&gt;worthless.proxy.errors -->
<g id="edge118" class="edge">
<title>worthless.proxy.rules&#45;&gt;worthless.proxy.errors</title>
<path fill="none" stroke="black" d="M838.68,-540.3C844.03,-548.27 850.5,-557.9 856.43,-566.74"/>
<polygon fill="black" stroke="black" points="861.9,-574.88 852.59,-569.09 859.79,-571.74 856.33,-566.58 856.33,-566.58 856.33,-566.58 859.79,-571.74 860.06,-564.07 861.9,-574.88"/>
</g>
<!-- worthless.storage -->
<g id="node44" class="node">
<title>worthless.storage</title>
<polygon fill="none" stroke="black" points="1191.31,-468 1080.81,-468 1080.81,-432 1191.31,-432 1191.31,-468"/>
<text xml:space="preserve" text-anchor="start" x="1088.81" y="-445.5" font-family="Times,serif" font-size="14.00">worthless.storage</text>
</g>
<!-- worthless.storage&#45;&gt;worthless.storage.repository -->
<g id="edge119" class="edge">
<title>worthless.storage&#45;&gt;worthless.storage.repository</title>
<path fill="none" stroke="black" d="M1191.74,-464.97C1196.24,-466.02 1200.73,-467.05 1205.06,-468 1263.72,-480.91 1329.84,-493.79 1382.31,-503.62"/>
<polygon fill="black" stroke="black" points="1392.1,-505.44 1381.44,-508.03 1388.38,-504.75 1382.27,-503.61 1382.27,-503.61 1382.27,-503.61 1388.38,-504.75 1383.09,-499.19 1392.1,-505.44"/>
</g>
<!-- worthless.storage&#45;&gt;worthless.storage.schema -->
<g id="edge120" class="edge">
<title>worthless.storage&#45;&gt;worthless.storage.schema</title>
<path fill="none" stroke="black" d="M1153.06,-468.43C1162.42,-478.44 1173.94,-491.47 1183.06,-504 1215.64,-548.75 1246.97,-605.33 1264.26,-638.11"/>
<polygon fill="black" stroke="black" points="1268.8,-646.8 1260.18,-640.02 1267.05,-643.45 1264.17,-637.94 1264.17,-637.94 1264.17,-637.94 1267.05,-643.45 1268.16,-635.85 1268.8,-646.8"/>
</g>
<!-- worthless.storage.repository&#45;&gt;worthless.defaults -->
<g id="edge121" class="edge">
<title>worthless.storage.repository&#45;&gt;worthless.defaults</title>
<path fill="none" stroke="black" d="M1478.06,-540.3C1478.06,-547.68 1478.06,-556.48 1478.06,-564.75"/>
<polygon fill="black" stroke="black" points="1478.06,-574.68 1473.56,-564.68 1478.06,-570.9 1478.06,-564.68 1478.06,-564.68 1478.06,-564.68 1478.06,-570.9 1482.56,-564.68 1478.06,-574.68"/>
</g>
<!-- worthless.storage.repository&#45;&gt;worthless.storage.schema -->
<g id="edge122" class="edge">
<title>worthless.storage.repository&#45;&gt;worthless.storage.schema</title>
<path fill="none" stroke="black" d="M1453.54,-540.41C1417.91,-565.71 1351.71,-612.71 1311.59,-641.2"/>
<polygon fill="black" stroke="black" points="1303.47,-646.96 1309.02,-637.5 1306.55,-644.77 1311.62,-641.17 1311.62,-641.17 1311.62,-641.17 1306.55,-644.77 1314.23,-644.84 1303.47,-646.96"/>
</g>
</g>
</svg>
